<?xml version="1.0" encoding="UTF-8"?>
<svg id="h" data-name="Ebene 7" xmlns="http://www.w3.org/2000/svg" width="40" height="40" viewBox="0 0 40 40">
  <path d="M19.5,20c1.654,0,3,1.346,3,3s-1.346,3-3,3-3-1.346-3-3,1.346-3,3-3m0-5c-4.418,0-8,3.582-8,8s3.582,8,8,8,8-3.582,8-8-3.582-8-8-8h0Z" fill="#926a36"/>
  <path d="M19.626,11c1.309,0,2.374,1.065,2.374,2.374v2.126h-5v-2.126c0-1.309,1.065-2.374,2.374-2.374h.253m0-3h-.253c-2.968,0-5.374,2.406-5.374,5.374v5.126h11v-5.126c0-2.968-2.406-5.374-5.374-5.374h0Z" fill="#926a36"/>
</svg>