<svg xmlns="http://www.w3.org/2000/svg" width="50" height="50" viewBox="0 0 50 50"><path d="M16,28l-1.2-.2-3.8-2v-1A2.8,2.8,0,0,1,13.8,22H16a3.4,3.4,0,0,1,1.7.5A2.9,2.9,0,0,1,19,25a3.1,3.1,0,0,1-3,3M33.4,10.9h0l-2.2.2-1,.3C28.1,12,13.3,17,8.7,18.9a15.9,15.9,0,0,0-4.8,3.9h0L2.6,24a9.8,9.8,0,0,1-1.1,1.1,2.5,2.5,0,0,0,0,3.4l.3.3a2.7,2.7,0,0,0,2.1,1.1H17.6a32.4,32.4,0,0,1,7.9-1h1.3a29.2,29.2,0,0,1,6.6.9,9.8,9.8,0,0,0,5.5-1.8,9.5,9.5,0,0,0-5.5-17.2" fill="#e6944c"/><path d="M16,27.3l-.9-.2-3.4-1.8v-.5a2.1,2.1,0,0,1,2.1-2.1H16a2,2,0,0,1,1.3.4,2.3,2.3,0,0,1,1,1.9A2.4,2.4,0,0,1,16,27.3Z" fill="#d1c09b"/><path d="M12.6,46.2h0a8.1,8.1,0,0,1,3.2-6.7A11.4,11.4,0,0,1,19.4,38h1c.7,0,16.7-.4,17.8-.6a8.7,8.7,0,0,0,5.6-3.2A8.6,8.6,0,0,0,45.6,28a8.1,8.1,0,0,0-2.1-4.9,12.4,12.4,0,0,0,.3-2.7,8.6,8.6,0,0,0-.1-1.6A8.7,8.7,0,0,1,45.1,20a11.2,11.2,0,0,1,3.4,7.8,10.7,10.7,0,0,1-2.8,7.8,12.3,12.3,0,0,1-2.8,2.3,11.6,11.6,0,0,1-5.6,1.3h-.4l-16.5-.4h-.9A7,7,0,0,0,16.1,40a7.6,7.6,0,0,0-3.4,6.2Z" fill="#d1c09b"/><path d="M11.4,14.6A2.6,2.6,0,0,0,8.8,12a2.6,2.6,0,0,0-2.6,2.6v6A7.2,7.2,0,0,1,9.1,18l1.1-.4,1-1.8h0A3.6,3.6,0,0,0,11.4,14.6Z" fill="#d1c09b"/><path d="M11,25.8v-1a2.7,2.7,0,0,1,1-2.1V17.6L9,18.8V29.9h3V26.3Z" fill="#5a3a1b" fill-opacity="0.5"/><path d="M39,12.7V28a9.5,9.5,0,0,0,3-3.6V16.3A8.8,8.8,0,0,0,39,12.7Z" fill="#5a3a1b" fill-opacity="0.5"/><path d="M19.5,15l-1.5.5-3,1.1V22h1a3.4,3.4,0,0,1,1.7.5l.3.3A2.7,2.7,0,0,1,19,25a3.2,3.2,0,0,1-1,2.2,2.8,2.8,0,0,1-2,.8l-1-.2v2.1h3l1.5-.3Z" fill="#5a3a1b" fill-opacity="0.5"/><path d="M33.4,10.9h-1V29.7h1a7.5,7.5,0,0,0,2.6-.4V11.2A10.9,10.9,0,0,0,33.4,10.9Z" fill="#5a3a1b" fill-opacity="0.5"/><path d="M25.7,12.9l-1.7.5V29h1.7Z" fill="#5a3a1b" fill-opacity="0.5"/><path d="M4.3,22.3l-.4.5h0l-.9.8v6.1l1.2.2h.1Z" fill="#5a3a1b" fill-opacity="0.5"/><circle cx="7.6" cy="25.8" r="1" fill="#221f20" fill-opacity="0.9"/></svg>