<svg xmlns="http://www.w3.org/2000/svg" width="50" height="50" viewBox="0 0 50 50">
  <g style="isolation: isolate">
    <g id="Mouse_Body" data-name="Mouse Body">
      <path d="M16,28a3,3,0,0,1-1.2-.25l-3.81-2v-1A2.8,2.8,0,0,1,13.84,22H16a3.13,3.13,0,0,1,1.7.51A2.93,2.93,0,0,1,19,25a3.1,3.1,0,0,1-3,3M34.91,8.82a1.05,1.05,0,0,0-.74.29l-.72.71-.68-.55a1,1,0,0,0-1.56.27l-.55.91-.84-.52a1,1,0,0,0-.55-.16,1,1,0,0,0-.95.6l-.44.92-.95-.5a1,1,0,0,0-.49-.13,1,1,0,0,0-.93.56l-.64,1.21-1.14-.58a1,1,0,0,0-.48-.12,1,1,0,0,0-.93.58l-.66,1.29L20.44,13a1.11,1.11,0,0,0-.46-.11,1.06,1.06,0,0,0-.95.59l-.62,1.27-1.2-.57a1.05,1.05,0,0,0-1.4.5l-.55,1.14-1.06-.49a1,1,0,0,0-.44-.1,1,1,0,0,0-.95.61l-.31.66L11.25,16l-.76,1.71L10,17.44a1,1,0,0,0-.41-.09,1.06,1.06,0,0,0-1,.65l-.49,1.16L7,19H6.8a1,1,0,0,0-1,.82l-.31,1.36-.89-.07-.29,1.17-.9-.12,0,1.23H2.21l-.29,1.27-.48-.07L1,26.12l-.12.94h0L1,28.58l1.44.84a2.47,2.47,0,0,0,.79.36l1,.15L5,29.8h.79l.61.1H17.58a32.2,32.2,0,0,1,7.92-1l1.33,0a31.69,31.69,0,0,1,6.57.93,9.3,9.3,0,0,0,1.76-.18l.5.25a1.18,1.18,0,0,0,.55.14,1.23,1.23,0,0,0,1.08-.67l.15-.31,1.8.31h.18a1,1,0,0,0,1-.87l.1-.57,1.3-.15a1.06,1.06,0,0,0,.92-1.17,1,1,0,0,1,.62-1.08l.69-.31a1,1,0,0,0,.54-1.38l-.54-1.24.93-.82a1,1,0,0,0,.09-1.49l-1-1.09.68-1.15a1.06,1.06,0,0,0-.38-1.44L43.27,16l.29-1.16a1.06,1.06,0,0,0-.83-1.29l-1.42-.27.06-1.17a1,1,0,0,0-1-1.1h-.08l-1.32.11-.26-.87a1,1,0,0,0-1-.75,1,1,0,0,0-.55.16l-.75.46-.58-.84a1,1,0,0,0-.86-.45" fill="#676774"/>
    </g>
    <g id="Ears_and_Tail" data-name="Ears and Tail">
      <path d="M16,27.3a2.48,2.48,0,0,1-.86-.16L11.7,25.33v-.57a2.1,2.1,0,0,1,2.14-2.06H16a2.41,2.41,0,0,1,1.32.4,2.24,2.24,0,0,1,1,1.94A2.39,2.39,0,0,1,16,27.3Z" fill="#343445" opacity="0.75"/>
      <path d="M6.8,18.26l.3,0,.56.1.28-.65a1.74,1.74,0,0,1,1.61-1.08,1.91,1.91,0,0,1,.58.1L10.9,15l.47.2a2.9,2.9,0,0,0,.07-.6,2.63,2.63,0,1,0-5.26,0v3.75A1.8,1.8,0,0,1,6.8,18.26Z" fill="#343445" opacity="0.75"/>
      <path d="M47.7,24.09A11.27,11.27,0,0,0,46.06,21a1.74,1.74,0,0,1-.59,1.36l-.54.49.33.76a1.76,1.76,0,0,1-.46,2,8.2,8.2,0,0,1,.05,5.16,8.37,8.37,0,0,1-3.51,4.5,8.62,8.62,0,0,1-2.72,1.11,10.28,10.28,0,0,1-1.49.19l-1.69.08-13.55.65a11.25,11.25,0,0,0-6.81,2.1,8.2,8.2,0,0,0-3,6.4h0a.5.5,0,0,0,1,0,7,7,0,0,1,2.8-5.38,7.83,7.83,0,0,1,2.82-1.27A9.06,9.06,0,0,1,20.26,39c.52,0,1,0,1.63,0H37.18a13.52,13.52,0,0,0,1.89-.16,11.06,11.06,0,0,0,3.6-1.27,11.14,11.14,0,0,0,5-13.47Z" fill="#343445" opacity="0.75"/>
    </g>
    <g id="Eye">
      <circle cx="7.63" cy="25.84" r="1.04" style="mix-blend-mode: multiply"/>
    </g>
  </g>
</svg>
