<svg xmlns="http://www.w3.org/2000/svg" width="50" height="50" viewBox="0 0 50 50"><g style="isolation:isolate"><path d="M16,28l-1.2-.2-3.8-2v-1A2.8,2.8,0,0,1,13.8,22H16a3.4,3.4,0,0,1,1.7.5A2.9,2.9,0,0,1,19,25a3.1,3.1,0,0,1-3,3M33.4,10.9h0l-2.2.2-1,.3C28.1,12,13.3,17,8.7,18.9a15.9,15.9,0,0,0-4.8,3.9h0L2.6,24a9.8,9.8,0,0,1-1.1,1.1,2.5,2.5,0,0,0,0,3.4l.3.3a2.7,2.7,0,0,0,2.1,1.1H17.6a32.4,32.4,0,0,1,7.9-1h1.3a29.2,29.2,0,0,1,6.6.9,9.8,9.8,0,0,0,5.5-1.8,9.5,9.5,0,0,0-5.5-17.2" fill="#fbf9f3"/><path d="M19,25a3.1,3.1,0,0,1-3,3l-1.2-.2-3.8-2v-1A2.8,2.8,0,0,1,13.8,22H16a3.4,3.4,0,0,1,1.7.5A2.9,2.9,0,0,1,19,25Z" fill="#3d405e" opacity="0.5" style="mix-blend-mode:multiply"/><path d="M11.3,14.6a2.7,2.7,0,0,0-5.3,0v6A7.2,7.2,0,0,1,8.9,18l1.1-.4,1-1.8h0A2,2,0,0,0,11.3,14.6Z" fill="#3d405e" opacity="0.5" style="mix-blend-mode:multiply"/><path d="M47.7,24.1a11.9,11.9,0,0,0-1.9-3.5l-.7-.7-.7-.7-.9-.9a11.8,11.8,0,0,1-.3,4.6,7.9,7.9,0,0,1,1.4,2.3,8.3,8.3,0,0,1,.3,5.6,8.4,8.4,0,0,1-3.6,4.5,8.1,8.1,0,0,1-2.7,1.1l-1.5.2H35.4l-13.5.6a11.9,11.9,0,0,0-6.8,2.1,8.3,8.3,0,0,0-3,6.4h0a.5.5,0,0,0,.5.5c.2.1.5-.2.5-.4a6.9,6.9,0,0,1,2.8-5.4,9,9,0,0,1,2.8-1.3l1.6-.2H37.2l1.9-.2a11.8,11.8,0,0,0,3.6-1.2,11.6,11.6,0,0,0,4.9-5.8A11.3,11.3,0,0,0,47.7,24.1Z" fill="#3d405e" opacity="0.5" style="mix-blend-mode:multiply"/><path d="M3,23.6v6.1a2.7,2.7,0,0,1-1.2-.9l-.3-.3a2.5,2.5,0,0,1,0-3.4L2.7,24Z" fill="#3d405e" opacity="0.6"/><path d="M6,20.7v9.1H4.2A2.3,2.3,0,0,1,3,29.7V23.6l.9-.8A20.8,20.8,0,0,1,6,20.7Z" fill="#3d405e" opacity="0.4"/><path d="M9,18.8V29.9H6V20.7a11.6,11.6,0,0,1,2.7-1.8Z" fill="#3d405e" opacity="0.27"/><path d="M35,11V29.8H33.4L32,29.6V11h3Z" fill="#221f20" opacity="0.05"/><path d="M38,12V28.7a9.8,9.8,0,0,1-3,1.1V11A9.6,9.6,0,0,1,38,12Z" fill="#3d405e" opacity="0.27"/><path d="M41,14.6V26a10.4,10.4,0,0,1-2.1,2.1l-.9.6V12A9.4,9.4,0,0,1,41,14.6Z" fill="#3d405e" opacity="0.4"/><path d="M41,26V14.6a11.3,11.3,0,0,1,1.6,3.3A9.2,9.2,0,0,1,41,26Z" fill="#3d405e" opacity="0.6"/><path d="M11,24.8v1l1,.5v3.6H9V18.8l3-1.2v5.1A2.7,2.7,0,0,0,11,24.8Z" fill="#3d405e" opacity="0.12"/><path d="M35,11V29.8H33.4L32,29.6V11h3Z" fill="#3d405e" opacity="0.12"/><path d="M32.1,11V29.6l-3-.5V11.8l1.1-.4,1-.3Z" fill="#3d405e" opacity="0.07"/><path d="M15,16.5V22H13.8a2.4,2.4,0,0,0-1.8.7V17.6Z" fill="#3d405e" opacity="0.07"/><path d="M15,27.8v2.1H12V26.3l2.8,1.5Z" fill="#3d405e" opacity="0.05"/><circle cx="7.6" cy="25.8" r="1" style="mix-blend-mode:multiply"/></g></svg>