<svg xmlns="http://www.w3.org/2000/svg" width="50" height="50" viewBox="0 0 50 50">
  <g id="Mouse_Body" data-name="Mouse Body">
    <path d="M16,28a3,3,0,0,1-1.2-.25l-3.81-2v-1A2.8,2.8,0,0,1,13.84,22H16a3.13,3.13,0,0,1,1.7.51A2.93,2.93,0,0,1,19,25a3.1,3.1,0,0,1-3,3M33.4,10.86h0a9.54,9.54,0,0,0-2.21.26l-1,.3c-2,.6-16.91,5.59-21.44,7.5a16.18,16.18,0,0,0-4.84,3.84L2.65,24l-1.1,1.09a2.46,2.46,0,0,0,0,3.47l.25.25a2.67,2.67,0,0,0,2.12,1.1h.25l1.38-.13.89.14H17.58a32.2,32.2,0,0,1,7.92-1l1.33,0a31.69,31.69,0,0,1,6.57.93,9.34,9.34,0,0,0,5.46-1.76A9.5,9.5,0,0,0,33.4,10.86" fill="#e6944c"/>
  </g>
  <g id="Ears_and_Tail" data-name="Ears and Tail">
    <path d="M16,27.3a2.48,2.48,0,0,1-.86-.16L11.7,25.33v-.57a2.1,2.1,0,0,1,2.14-2.06H16a2.41,2.41,0,0,1,1.32.4,2.24,2.24,0,0,1,1,1.94A2.39,2.39,0,0,1,16,27.3Z" fill="#d1c09b"/>
    <path d="M11.26,14.63a2.63,2.63,0,1,0-5.26,0v5.93A6.76,6.76,0,0,1,8.9,18l1.1-.46,1-1.8v0A2.58,2.58,0,0,0,11.26,14.63Z" fill="#d1c09b"/>
    <path d="M47.7,24.09a11.52,11.52,0,0,0-1.92-3.46,9.32,9.32,0,0,0-.67-.74c-.23-.24-.48-.49-.68-.66l-1-.91a10.23,10.23,0,0,1-.24,4.58,8,8,0,0,1,1.43,2.32,8.2,8.2,0,0,1,.21,5.59,8.37,8.37,0,0,1-3.51,4.5,8.62,8.62,0,0,1-2.72,1.11,10.28,10.28,0,0,1-1.49.19l-1.69.08-13.55.65a11.25,11.25,0,0,0-6.81,2.1,8.2,8.2,0,0,0-3,6.4h0a.5.5,0,0,0,1,0,7,7,0,0,1,2.8-5.38,7.83,7.83,0,0,1,2.82-1.27A9.06,9.06,0,0,1,20.26,39c.52,0,1,0,1.63,0H37.18a13.52,13.52,0,0,0,1.89-.16,11.06,11.06,0,0,0,3.6-1.27,11.14,11.14,0,0,0,5-13.47Z" fill="#d1c09b"/>
  </g>
  <g id="Markings">
    <path d="M11,25.76v-1a2.71,2.71,0,0,1,1-2.09v-5c-1.19.44-2.22.84-3,1.16V29.89h3V26.28Z" fill="#fff" fill-opacity="0.5"/>
    <path d="M39,12.66V28a9.47,9.47,0,0,0,3-3.61V16.28A9.39,9.39,0,0,0,39,12.66Z" fill="#fff" fill-opacity="0.5"/>
    <path d="M19.52,15,18,15.5l-3,1.06V22h1a3.13,3.13,0,0,1,1.7.51,3.47,3.47,0,0,1,.29.25A3,3,0,0,1,16,28a3.45,3.45,0,0,1-1-.17v2.06h2.58l.42-.1c.47-.11,1-.22,1.52-.32Z" fill="#fff" fill-opacity="0.5"/>
    <path d="M33.4,10.86c-.14,0-.27,0-.4,0l-.65,0V29.66l.65.14.4.09a9.34,9.34,0,0,0,2.6-.38V11.22A9.72,9.72,0,0,0,33.4,10.86Z" fill="#fff" fill-opacity="0.5"/>
    <path d="M25.71,12.87,24,13.45V29c.55,0,1.13,0,1.71,0Z" fill="#fff" fill-opacity="0.5"/>
    <path d="M4.33,22.31l-.45.45h0L3,23.63V29.7a2.43,2.43,0,0,0,1.15.18l.18,0Z" fill="#fff" fill-opacity="0.5"/>
  </g>
  <g id="Eye">
    <circle cx="7.63" cy="25.84" r="1.04" fill="#221f20" fill-opacity="0.9"/>
  </g>
</svg>
