<svg xmlns="http://www.w3.org/2000/svg" width="50" height="50" viewBox="0 0 50 50">
  <g style="isolation: isolate">
    <g id="Mouse_Body" data-name="Mouse Body">
      <path d="M16,28a3,3,0,0,1-1.2-.25l-3.81-2v-1A2.8,2.8,0,0,1,13.84,22H16a3.13,3.13,0,0,1,1.7.51A2.93,2.93,0,0,1,19,25a3.1,3.1,0,0,1-3,3M33.4,10.86h0a9.54,9.54,0,0,0-2.21.26l-1,.3c-2,.6-16.91,5.59-21.44,7.5a16.18,16.18,0,0,0-4.84,3.84L2.65,24l-1.1,1.09a2.46,2.46,0,0,0,0,3.47l.25.25a2.67,2.67,0,0,0,2.12,1.1h.25l1.38-.13.89.14H17.58a32.2,32.2,0,0,1,7.92-1l1.33,0a31.69,31.69,0,0,1,6.57.93,9.34,9.34,0,0,0,5.46-1.76A9.5,9.5,0,0,0,33.4,10.86" fill="#fff"/>
    </g>
    <g id="Ears_and_Tail" data-name="Ears and Tail">
      <path d="M11.26,14.63a2.63,2.63,0,1,0-5.26,0v5.93A6.76,6.76,0,0,1,8.9,18l1.1-.46,1-1.8v0A2.58,2.58,0,0,0,11.26,14.63Z" fill="#221f20"/>
      <path d="M19,25a3.1,3.1,0,0,1-3,3,3,3,0,0,1-1.2-.25l-3.81-2v-1A2.8,2.8,0,0,1,13.84,22H16a3.13,3.13,0,0,1,1.7.51A2.93,2.93,0,0,1,19,25Z" fill="#f2e0cf"/>
      <path d="M47.7,24.09a11.52,11.52,0,0,0-1.92-3.46,9.32,9.32,0,0,0-.67-.74c-.23-.24-.48-.49-.68-.66l-1-.91a10.23,10.23,0,0,1-.24,4.58,8,8,0,0,1,1.43,2.32,8.2,8.2,0,0,1,.21,5.59,8.37,8.37,0,0,1-3.51,4.5,8.62,8.62,0,0,1-2.72,1.11,10.28,10.28,0,0,1-1.49.19l-1.69.08-13.55.65a11.25,11.25,0,0,0-6.81,2.1,8.2,8.2,0,0,0-3,6.4h0a.5.5,0,0,0,1,0,7,7,0,0,1,2.8-5.38,7.83,7.83,0,0,1,2.82-1.27A9.06,9.06,0,0,1,20.26,39c.52,0,1,0,1.63,0H37.18a13.52,13.52,0,0,0,1.89-.16,11.06,11.06,0,0,0,3.6-1.27,11.14,11.14,0,0,0,5-13.47Z" fill="#f2e0cf"/>
    </g>
    <g id="Markings">
      <path d="M7.63,28.53a2.86,2.86,0,0,1-.35,1.36H6.42l-.89-.14-1.38.13a2.64,2.64,0,0,1-2.37-1.09l0,0a1,1,0,0,1,0-.24,2.91,2.91,0,0,1,2.94-2.88A2.92,2.92,0,0,1,7.63,28.53Z" fill="#221f20"/>
      <path d="M22.94,24.29a4.24,4.24,0,0,1-4.24,4.24,4.17,4.17,0,0,1-2.46-.79,3.12,3.12,0,0,0,2.45-2.81,3.07,3.07,0,0,0-1.33-2.78,3.13,3.13,0,0,0-1.76-.55h-.16a4.16,4.16,0,0,1,3.26-1.55A4.23,4.23,0,0,1,22.94,24.29Z" fill="#221f20"/>
      <path d="M42.64,22.6a9.52,9.52,0,0,1-3.78,5.53,9.37,9.37,0,0,1-3,1.42h0a5.48,5.48,0,1,1,6.74-6.95Z" fill="#221f20"/>
      <path d="M33.64,14.57a5.48,5.48,0,1,1-11,0,3.94,3.94,0,0,1,.05-.69c3.58-1.22,6.61-2.21,7.43-2.46l1-.3a7.69,7.69,0,0,1,1.05-.18A5.4,5.4,0,0,1,33.64,14.57Z" fill="#221f20"/>
    </g>
    <g id="Eye">
      <circle cx="7.63" cy="25.84" r="1.04" style="mix-blend-mode: multiply"/>
    </g>
  </g>
</svg>
