<svg xmlns="http://www.w3.org/2000/svg" width="50" height="50" viewBox="0 0 50 50">
  <g style="isolation: isolate">
    <g id="Mouse_Body" data-name="Mouse Body">
      <path d="M16,28a3,3,0,0,1-1.2-.25l-3.81-2v-1A2.8,2.8,0,0,1,13.84,22H16a3.13,3.13,0,0,1,1.7.51A2.92,2.92,0,0,1,19,25a3.1,3.1,0,0,1-3,3M33.4,10.86h0a9,9,0,0,0-2.21.27l-1,.29c-2,.6-16.91,5.59-21.44,7.5a16.18,16.18,0,0,0-4.84,3.84L2.65,24l-1.1,1.09a2.46,2.46,0,0,0,0,3.47l.25.25a2.65,2.65,0,0,0,2.12,1.1h.25l1.38-.13.89.14H17.58a32.2,32.2,0,0,1,7.92-1l1.33,0a31.69,31.69,0,0,1,6.57.93,9.34,9.34,0,0,0,5.46-1.76A9.5,9.5,0,0,0,33.4,10.86" fill="#676774"/>
    </g>
    <g id="Ears_and_Tail" data-name="Ears and Tail">
      <path d="M16,27.3a2.48,2.48,0,0,1-.86-.16L11.7,25.33v-.57a2.1,2.1,0,0,1,2.14-2.06H16a2.41,2.41,0,0,1,1.32.4,2.24,2.24,0,0,1,1,1.94A2.39,2.39,0,0,1,16,27.3Z" fill="#343445" opacity="0.75"/>
      <path d="M11.26,14.63a2.63,2.63,0,1,0-5.26,0v5.93A6.76,6.76,0,0,1,8.9,18l1.1-.46,1-1.8v0A2.58,2.58,0,0,0,11.26,14.63Z" fill="#343445" opacity="0.75"/>
      <path d="M47.7,24.09a11.52,11.52,0,0,0-1.92-3.46,9.32,9.32,0,0,0-.67-.74c-.23-.24-.48-.49-.68-.66l-1-.91a10.23,10.23,0,0,1-.24,4.58,8,8,0,0,1,1.43,2.32,8.2,8.2,0,0,1,.21,5.59,8.37,8.37,0,0,1-3.51,4.5,8.62,8.62,0,0,1-2.72,1.11,10.28,10.28,0,0,1-1.49.19l-1.69.08-13.55.65a11.25,11.25,0,0,0-6.81,2.1,8.2,8.2,0,0,0-3,6.4h0a.5.5,0,0,0,1,0,7,7,0,0,1,2.8-5.38,7.83,7.83,0,0,1,2.82-1.27A9.06,9.06,0,0,1,20.26,39c.52,0,1,0,1.63,0H37.18a13.52,13.52,0,0,0,1.89-.16,11.06,11.06,0,0,0,3.6-1.27,11.14,11.14,0,0,0,5-13.47Z" fill="#343445" opacity="0.75"/>
    </g>
    <g id="Under">
      <path d="M10,29.89a104.7,104.7,0,0,1,29.41-2.16c-.17.14-.35.27-.53.4a9.34,9.34,0,0,1-5.46,1.76A31.69,31.69,0,0,0,26.83,29a32.82,32.82,0,0,0-9.25.93Z" fill="#fff" opacity="0.95"/>
    </g>
    <g id="Eye">
      <circle cx="7.63" cy="25.84" r="1.04" style="mix-blend-mode: multiply"/>
    </g>
  </g>
</svg>
