<svg xmlns="http://www.w3.org/2000/svg" width="50" height="50" viewBox="0 0 50 50">
  <g style="isolation: isolate">
    <g id="Mouse_Body" data-name="Mouse Body">
      <path d="M16,28a3,3,0,0,1-1.2-.25l-3.81-2v-1A2.8,2.8,0,0,1,13.84,22H16a3.13,3.13,0,0,1,1.7.51,2,2,0,0,1,.35.28l.24.25A2.9,2.9,0,0,1,19,24.66c0,.13,0,.25,0,.38a2.72,2.72,0,0,1-.11.75A3.14,3.14,0,0,1,16,28M33.4,10.86a9.54,9.54,0,0,0-2.21.26l-1,.3c-2,.6-16.91,5.59-21.44,7.5a16.18,16.18,0,0,0-4.84,3.84L2.65,24l-1.1,1.09a2.46,2.46,0,0,0,0,3.47l.25.25a2.65,2.65,0,0,0,2.13,1.1h.24l1.38-.13.89.14H17.58a32.58,32.58,0,0,1,7.9-1l1.35,0a31.69,31.69,0,0,1,6.57.93,9.34,9.34,0,0,0,5.46-1.76A9.5,9.5,0,0,0,33.4,10.86" fill="#b8b8b8"/>
    </g>
    <g id="Ears_and_Tail" data-name="Ears and Tail">
      <path d="M11.26,14.63a2.63,2.63,0,1,0-5.26,0v5.93A6.76,6.76,0,0,1,8.9,18l1.1-.46,1-1.8v0A2.58,2.58,0,0,0,11.26,14.63Z" fill="#cfc2a5"/>
      <path d="M16,27.3a2.48,2.48,0,0,1-.86-.16L11.7,25.33v-.57a2.1,2.1,0,0,1,2.14-2.06H16a2.41,2.41,0,0,1,1.32.4,2.24,2.24,0,0,1,1,1.94A2.39,2.39,0,0,1,16,27.3Z" fill="#cfc2a5"/>
      <path d="M47.7,24.09a11.52,11.52,0,0,0-1.92-3.46,9.32,9.32,0,0,0-.67-.74c-.23-.24-.48-.49-.68-.66l-1-.91a10.23,10.23,0,0,1-.24,4.58,8,8,0,0,1,1.43,2.32,8.2,8.2,0,0,1,.21,5.59,8.37,8.37,0,0,1-3.51,4.5,8.62,8.62,0,0,1-2.72,1.11,10.28,10.28,0,0,1-1.49.19l-1.69.08-13.55.65a11.25,11.25,0,0,0-6.81,2.1,8.2,8.2,0,0,0-3,6.4h0a.5.5,0,0,0,1,0,7,7,0,0,1,2.8-5.38,7.83,7.83,0,0,1,2.82-1.27A9.06,9.06,0,0,1,20.26,39c.52,0,1,0,1.63,0H37.18a13.52,13.52,0,0,0,1.89-.16,11.06,11.06,0,0,0,3.6-1.27,11.14,11.14,0,0,0,5-13.47Z" fill="#cfc2a5"/>
    </g>
    <g id="Ticking">
      <path d="M35.17,23.79l-4.28.71V23.08Zm-12.83-.71V24.5l4.27-.71Zm0,2.85v1.43l4.27-.72Zm4.27-1.43v1.43l4.28-.71Zm8.56,0v1.43l4.27-.71Zm-8.56-2.85v1.43l4.28-.71ZM35.17,11v.64l1.48-.24A8.29,8.29,0,0,0,35.17,11Zm0,10.62v1.43l4.27-.71Zm0-7.13,4.27-.71-4.27-.71Zm0,1.43v1.43l4.27-.72Zm0,2.85v1.43l4.27-.72ZM39.44,16l2.2-.37c-.16-.26-.33-.52-.51-.77l-1.69-.29ZM30.89,18.8l4.28-.71-4.28-.71ZM13.78,20.23v1.36l.19,0h.28l3.81-.63Zm4.28,0,4.28-.72-4.28-.71Zm12.83-5.71V16l4.28-.71ZM18.06,21.65v1.14a1.88,1.88,0,0,1,.24.25l4-.67ZM39.44,18.8l3.22-.53c0-.13,0-.25-.08-.37l-3.14-.52Zm-17.1,0,4.27-.71-4.27-.71Zm8.55,2.85,4.28-.71-4.28-.71Zm-8.55,0,4.27-.71-4.27-.71Zm4.27-4.27,4.28-.72L26.61,16Zm0,2.85,4.28-.72-4.28-.71Zm4.28,5.7v1.43l4.28-.72Zm-17.11,4h1.93l2.35-.4-4.28-.71Zm4.28-2.53v1.42l4.28-.71Zm4.28,1.82c.49-.06,1-.11,1.52-.14l-1.52-.26Zm-17.11.6.3,0,.89.14h.73l2.35-.4-4.27-.71ZM9.5,27.36v1.42l4.28-.71Zm25.67,1.42,3.62-.6.07-.05L39,28l-3.86-.64Zm-8.56,0,4.28-.71-4.28-.71Zm12.83-8.55v1.42l3.44-.57c0-.09,0-.18,0-.28Zm0,4.27,2.71-.45c.07-.16.14-.32.2-.49l-2.91-.48Zm0,2.86.46-.08a8.87,8.87,0,0,0,1-1.11l-1.47-.24ZM1,27.36v.2a2.41,2.41,0,0,0,.58,1l.12.12,3.58-.59ZM22.34,14.52V16l4.27-.71Zm-8.56,2.86V18.8l4.28-.71ZM18.06,16v1.43l4.28-.72Zm12.83-4.28V13.1l4.28-.71ZM26.61,13.1v1.42l4.28-.71ZM9.5,18.8v1.43l4.28-.72ZM6.35,20.42c-.38.31-.75.65-1.12,1v.23l4.27-.71ZM5.23,23.08V24.5l4.27-.71Zm0,4.28,4.27-.72-1.06-.17a1,1,0,0,1-1.78-.3l-1.43-.24ZM2,24.67l-.4.4a2.62,2.62,0,0,0-.56.85l4.24-.7Zm10.32-2.55L9.5,21.65v1.43l2.15-.36A2.93,2.93,0,0,1,12.27,22.12ZM9.5,24.5v1.43l1.71-.28-.2-.12v-.77Zm12.84.72L19,24.66c0,.13,0,.25,0,.38a2.72,2.72,0,0,1-.11.75Z" fill="#221f20" opacity="0.3"/>
    </g>
    <g id="Under">
      <path d="M10.62,29.89H10a104.7,104.7,0,0,1,29.41-2.16c-.17.14-.35.27-.53.4a9.34,9.34,0,0,1-5.46,1.76A31.69,31.69,0,0,0,26.83,29a32.82,32.82,0,0,0-9.25.93" fill="#fff" opacity="0.8"/>
    </g>
    <g id="Eye">
      <circle cx="7.63" cy="25.84" r="1.04" style="mix-blend-mode: multiply"/>
    </g>
  </g>
</svg>
