<svg xmlns="http://www.w3.org/2000/svg" width="50" height="50" viewBox="0 0 50 50"><g style="isolation:isolate"><path d="M16,28l-1.2-.2-3.8-2v-1A2.8,2.8,0,0,1,13.8,22H16a3.4,3.4,0,0,1,1.7.5A2.9,2.9,0,0,1,19,25a3.1,3.1,0,0,1-3,3M33.4,10.9h0a7.8,7.8,0,0,0-2.2.2l-1,.3C28.1,12,13.3,17,8.7,18.9a15.9,15.9,0,0,0-4.8,3.9L2.6,24a9.8,9.8,0,0,1-1.1,1.1,2.5,2.5,0,0,0,0,3.4l.3.3a2.7,2.7,0,0,0,2.1,1.1H17.6a32.4,32.4,0,0,1,7.9-1h1.3a29.2,29.2,0,0,1,6.6.9,9.8,9.8,0,0,0,5.5-1.8,9.5,9.5,0,0,0-5.5-17.2" fill="#8b5a3a"/><path d="M16,27.3l-.9-.2-3.4-1.8v-.5a2.1,2.1,0,0,1,2.1-2.1H16a2,2,0,0,1,1.3.4,2.3,2.3,0,0,1,1,1.9A2.4,2.4,0,0,1,16,27.3Z" fill="#9b7156"/><path d="M11.4,14.6A2.6,2.6,0,0,0,8.8,12a2.6,2.6,0,0,0-2.6,2.6v6A7.2,7.2,0,0,1,9.1,18l1.1-.4,1-1.8h0A3.6,3.6,0,0,0,11.4,14.6Z" fill="#9b7156"/><path d="M47.7,24.1a11.9,11.9,0,0,0-1.9-3.5l-.7-.7-.7-.7-.9-.9a11.8,11.8,0,0,1-.3,4.6,7.9,7.9,0,0,1,1.4,2.3,8.3,8.3,0,0,1,.3,5.6,8.4,8.4,0,0,1-3.6,4.5,8.1,8.1,0,0,1-2.7,1.1l-1.5.2H35.4l-13.5.6a11.9,11.9,0,0,0-6.8,2.1,8.3,8.3,0,0,0-3,6.4h0a.5.5,0,0,0,.5.5c.2.1.5-.2.5-.4a6.9,6.9,0,0,1,2.8-5.4,9,9,0,0,1,2.8-1.3l1.6-.2H37.2l1.9-.2a11.8,11.8,0,0,0,3.6-1.2,11.6,11.6,0,0,0,4.9-5.8A11.3,11.3,0,0,0,47.7,24.1Z" fill="#9b7156"/><path d="M22.3,25.2l-3.8.7a3,3,0,0,0,.2-1v-.3Zm8.6-2.1v1.4l4.3-.7Zm-8.6,0v1.4l4.3-.7Zm0,2.8v1.5l4.3-.8Zm4.3-1.4v1.4l4.3-.7Zm8.6,0v1.4l4.2-.7Zm-8.6-2.8v1.4l4.3-.7ZM35.2,11v.7l1.5-.3Zm0,10.7v1.4l4.2-.7Zm0-7.2,4.2-.7-4.2-.7Zm0,1.5v1.4l4.2-.7Zm0,2.8v1.4l4.2-.7ZM39.4,16l2.2-.4a3.5,3.5,0,0,0-.5-.8l-1.7-.3Zm-8.5,2.8,4.3-.7-4.3-.7ZM13.8,20.2v1.4h.5l3.8-.7Zm4.3,0,4.2-.7-4.2-.7Zm12.8-5.7V16l4.3-.8Zm-8.6,7.9-4.2-.7v1.1c0,.1.1.2.1.3Zm17.1-3.6,3.3-.5a.8.8,0,0,1-.1-.4l-3.2-.5Zm-17.1,0,4.3-.7-4.3-.7Zm8.6,2.9,4.3-.8-4.3-.7Zm-8.6,0,4.3-.8-4.3-.7Zm4.3-4.3,4.3-.7L26.6,16Zm0,2.8,4.3-.7-4.3-.7Zm4.3,5.7v1.5l4.3-.8Zm-17.1,4h1.9l2.4-.4-4.3-.7Zm4.3-2.5v1.4l4.2-.7Zm4.2,1.8,1.6-.2-1.6-.2Zm-17.1.6h2l2.3-.4-4.3-.7Zm4.3-2.4v1.4l4.3-.7Zm25.7,1.4,3.6-.6H39l-3.8-.6Zm-8.6,0,4.3-.7-4.3-.7Zm12.8-8.6v1.5l3.5-.6v-.3Zm0,4.3,2.8-.4a4.3,4.3,0,0,1,.1-.5l-2.9-.5Zm0,2.9h.5l1-1.1-1.5-.3ZM.9,27.4v.2c.2.3.3.7.6.9l.2.2,3.5-.6ZM22.3,14.5V16l4.3-.8Zm-8.5,2.9v1.4l4.3-.7ZM18.1,16v1.4l4.2-.7Zm12.8-4.3v1.4l4.3-.7Zm-4.3,1.4v1.4l4.3-.7ZM9.5,18.8v1.4l4.3-.7ZM6.4,20.4l-1.2,1v.3l4.3-.8ZM5.2,23.1v1.4l4.3-.7Zm0,4.3,4.3-.8H8.4a.9.9,0,0,1-.8.4,1,1,0,0,1-.9-.7l-1.5-.3ZM2,24.7l-.5.4a2.2,2.2,0,0,0-.5.8l4.2-.7Zm10.3-2.6-2.8-.4v1.4l2.2-.4ZM9.5,24.5v1.4l1.7-.3H11v-.7Z" fill="#c6a220"/><circle cx="7.6" cy="25.8" r="1" style="mix-blend-mode:multiply"/></g></svg>