<svg xmlns="http://www.w3.org/2000/svg" width="50" height="50" viewBox="0 0 50 50"><path d="M16,28l-1.2-.2-3.8-2v-1A2.8,2.8,0,0,1,13.8,22H16a3.4,3.4,0,0,1,1.7.5A2.9,2.9,0,0,1,19,25a3.1,3.1,0,0,1-3,3M33.4,10.9h0l-2.2.2-1,.3C28.1,12,13.3,17,8.7,18.9a15.9,15.9,0,0,0-4.8,3.9L2.6,24a9.8,9.8,0,0,1-1.1,1.1,2.5,2.5,0,0,0,0,3.4l.3.3a2.7,2.7,0,0,0,2.1,1.1H17.6a32.4,32.4,0,0,1,7.9-1h1.3a29.2,29.2,0,0,1,6.6.9,9.8,9.8,0,0,0,5.5-1.8,9.5,9.5,0,0,0-5.5-17.2" fill="#c5c5ca"/><path d="M16,27.3l-.9-.2-3.4-1.8v-.5a2.1,2.1,0,0,1,2.1-2.1H16a2,2,0,0,1,1.3.4,2.3,2.3,0,0,1,1,1.9A2.4,2.4,0,0,1,16,27.3Z" fill="#f2e0cf" opacity="0.75"/><path d="M11.3,14.6a2.7,2.7,0,0,0-5.3,0v6A7.2,7.2,0,0,1,8.9,18l1.1-.4,1-1.8h0A2,2,0,0,0,11.3,14.6Z" fill="#f2e0cf" opacity="0.75"/><path d="M47.7,24.1a11.9,11.9,0,0,0-1.9-3.5l-.7-.7-.7-.7-.9-.9a11.8,11.8,0,0,1-.3,4.6,7.9,7.9,0,0,1,1.4,2.3,8.3,8.3,0,0,1,.3,5.6,8.4,8.4,0,0,1-3.6,4.5,8.1,8.1,0,0,1-2.7,1.1l-1.5.2H35.4l-13.5.6a11.9,11.9,0,0,0-6.8,2.1,8.3,8.3,0,0,0-3,6.4h0a.5.5,0,0,0,.5.5c.2.1.5-.2.5-.4a6.9,6.9,0,0,1,2.8-5.4,9,9,0,0,1,2.8-1.3l1.6-.2H37.2l1.9-.2a11.8,11.8,0,0,0,3.6-1.2,11.6,11.6,0,0,0,4.9-5.8A11.3,11.3,0,0,0,47.7,24.1Z" fill="#f7ebdf"/><path d="M10,29.9a105.2,105.2,0,0,1,13-2,114.1,114.1,0,0,1,16.4-.2l-.5.4a9.8,9.8,0,0,1-5.5,1.8,24.5,24.5,0,0,0-6.6-.9,30.4,30.4,0,0,0-9.2.9Z" fill="#dc6700"/><circle cx="7.6" cy="25.8" r="1" fill="#d73a31" fill-opacity="0.9"/></svg>