<svg xmlns="http://www.w3.org/2000/svg" width="50" height="50" viewBox="0 0 50 50"><g style="isolation:isolate"><path d="M16,28l-1.2-.2-3.8-2v-1A2.8,2.8,0,0,1,13.8,22H16a3.4,3.4,0,0,1,1.7.5A2.9,2.9,0,0,1,19,25a3.1,3.1,0,0,1-3,3M33.4,10.9h0l-2.2.2-1,.3C28.1,12,13.3,17,8.7,18.9a15.9,15.9,0,0,0-4.8,3.9h0L2.6,24a9.8,9.8,0,0,1-1.1,1.1,2.5,2.5,0,0,0,0,3.4l.3.3a2.7,2.7,0,0,0,2.1,1.1H17.6a32.4,32.4,0,0,1,7.9-1h1.3a29.2,29.2,0,0,1,6.6.9,9.8,9.8,0,0,0,5.5-1.8,9.5,9.5,0,0,0-5.5-17.2" fill="#7d3e07"/><path d="M16,27.3l-.9-.2-3.4-1.8v-.5a2.1,2.1,0,0,1,2.1-2.1H16a2,2,0,0,1,1.3.4,2.3,2.3,0,0,1,1,1.9A2.4,2.4,0,0,1,16,27.3Z" fill="#7d3e07"/><path d="M11.4,14.6A2.6,2.6,0,0,0,8.8,12a2.6,2.6,0,0,0-2.6,2.6v6A7.2,7.2,0,0,1,9.1,18l1.1-.4,1-1.8h0A3.6,3.6,0,0,0,11.4,14.6Z" fill="#7d3e07"/><path d="M47.7,24.1a11.9,11.9,0,0,0-1.9-3.5l-.7-.7-.7-.7-.9-.9a11.8,11.8,0,0,1-.3,4.6,7.9,7.9,0,0,1,1.4,2.3,8.3,8.3,0,0,1,.3,5.6,8.4,8.4,0,0,1-3.6,4.5,8.1,8.1,0,0,1-2.7,1.1l-1.5.2H35.4l-13.5.6a11.9,11.9,0,0,0-6.8,2.1,8.3,8.3,0,0,0-3,6.4h0a.5.5,0,0,0,.5.5c.2.1.5-.2.5-.4a6.9,6.9,0,0,1,2.8-5.4,9,9,0,0,1,2.8-1.3l1.6-.2H37.2l1.9-.2a11.8,11.8,0,0,0,3.6-1.2,11.6,11.6,0,0,0,4.9-5.8A11.3,11.3,0,0,0,47.7,24.1Z" fill="#7d3e07"/><path d="M18.7,24.6v.3a3,3,0,0,1-.2,1l3.8-.7Z" opacity="0.3"/><polygon points="30.9 23.1 30.9 24.5 35.2 23.8 30.9 23.1" opacity="0.3"/><polygon points="22.3 23.1 22.3 24.5 26.6 23.8 22.3 23.1" opacity="0.3"/><polygon points="22.3 25.9 22.3 27.4 26.6 26.6 22.3 25.9" opacity="0.3"/><polygon points="26.6 24.5 26.6 25.9 30.9 25.2 26.6 24.5" opacity="0.3"/><polygon points="35.2 24.5 35.2 25.9 39.4 25.2 35.2 24.5" opacity="0.3"/><polygon points="26.6 21.7 26.6 23.1 30.9 22.4 26.6 21.7" opacity="0.3"/><path d="M35.2,11v.7l1.5-.3Z" opacity="0.3"/><polygon points="35.2 21.7 35.2 23.1 39.4 22.4 35.2 21.7" opacity="0.3"/><polygon points="35.2 14.5 39.4 13.8 35.2 13.1 35.2 14.5" opacity="0.3"/><polygon points="35.2 16 35.2 17.4 39.4 16.7 35.2 16" opacity="0.3"/><polygon points="35.2 18.8 35.2 20.2 39.4 19.5 35.2 18.8" opacity="0.3"/><path d="M39.4,16l2.2-.4a3.5,3.5,0,0,0-.5-.8l-1.7-.3Z" opacity="0.3"/><polygon points="30.9 18.8 35.2 18.1 30.9 17.4 30.9 18.8" opacity="0.3"/><path d="M13.8,20.2v1.4h.5l3.8-.7Z" opacity="0.3"/><polygon points="18.1 20.2 22.3 19.5 18.1 18.8 18.1 20.2" opacity="0.3"/><polygon points="30.9 14.5 30.9 16 35.2 15.2 30.9 14.5" opacity="0.3"/><path d="M22.3,22.4l-4.2-.7v1.1c0,.1.1.2.1.3Z" opacity="0.3"/><path d="M39.4,18.8l3.3-.5a.8.8,0,0,1-.1-.4l-3.2-.5Z" opacity="0.3"/><polygon points="22.3 18.8 26.6 18.1 22.3 17.4 22.3 18.8" opacity="0.3"/><polygon points="30.9 21.7 35.2 20.9 30.9 20.2 30.9 21.7" opacity="0.3"/><polygon points="22.3 21.7 26.6 20.9 22.3 20.2 22.3 21.7" opacity="0.3"/><polygon points="26.6 17.4 30.9 16.7 26.6 16 26.6 17.4" opacity="0.3"/><polygon points="26.6 20.2 30.9 19.5 26.6 18.8 26.6 20.2" opacity="0.3"/><polygon points="30.9 25.9 30.9 27.4 35.2 26.6 30.9 25.9" opacity="0.3"/><polygon points="13.8 29.9 15.7 29.9 18.1 29.5 13.8 28.8 13.8 29.9" opacity="0.3"/><polygon points="18.1 27.4 18.1 28.8 22.3 28.1 18.1 27.4" opacity="0.3"/><path d="M22.3,29.2l1.6-.2-1.6-.2Z" opacity="0.3"/><path d="M5.2,29.8h2l2.3-.4-4.3-.7Z" opacity="0.3"/><polygon points="9.5 27.4 9.5 28.8 13.8 28.1 9.5 27.4" opacity="0.3"/><path d="M35.2,28.8l3.6-.6H39l-3.8-.6Z" opacity="0.3"/><polygon points="26.6 28.8 30.9 28.1 26.6 27.4 26.6 28.8" opacity="0.3"/><path d="M39.4,20.2v1.5l3.5-.6v-.3Z" opacity="0.3"/><path d="M39.4,24.5l2.8-.4a4.3,4.3,0,0,1,.1-.5l-2.9-.5Z" opacity="0.3"/><path d="M39.4,27.4h.5l1-1.1-1.5-.3Z" opacity="0.3"/><path d="M.9,27.4v.2c.2.3.3.7.6.9l.2.2,3.5-.6Z" opacity="0.3"/><polygon points="22.3 14.5 22.3 16 26.6 15.2 22.3 14.5" opacity="0.3"/><polygon points="13.8 17.4 13.8 18.8 18.1 18.1 13.8 17.4" opacity="0.3"/><polygon points="18.1 16 18.1 17.4 22.3 16.7 18.1 16" opacity="0.3"/><polygon points="30.9 11.7 30.9 13.1 35.2 12.4 30.9 11.7" opacity="0.3"/><polygon points="26.6 13.1 26.6 14.5 30.9 13.8 26.6 13.1" opacity="0.4"/><polygon points="9.5 18.8 9.5 20.2 13.8 19.5 9.5 18.8" opacity="0.3"/><path d="M6.4,20.4l-1.2,1v.3l4.3-.8Z" opacity="0.3"/><polygon points="5.2 23.1 5.2 24.5 9.5 23.8 5.2 23.1" opacity="0.3"/><path d="M5.2,27.4l4.3-.8H8.4a.9.9,0,0,1-.8.4,1,1,0,0,1-.9-.7l-1.5-.3Z" opacity="0.3"/><path d="M2,24.7l-.5.4a2.2,2.2,0,0,0-.5.8l4.2-.7Z" opacity="0.3"/><path d="M12.3,22.1l-2.8-.4v1.4l2.2-.4Z" opacity="0.3"/><polygon points="9.5 24.5 9.5 25.9 11.2 25.6 11 25.5 11 24.8 9.5 24.5" opacity="0.3"/><circle cx="7.6" cy="25.8" r="1" fill="#806445" style="mix-blend-mode:multiply"/></g></svg>