<svg xmlns="http://www.w3.org/2000/svg" width="50" height="50" viewBox="0 0 50 50">
  <g style="isolation: isolate">
    <g id="Mouse_Body" data-name="Mouse Body">
      <path d="M43.82,22.11l4.25-.39-4.42-2.63,3.84-1.75-4.87-1L46,13.73l-5.12-.09,2.91-3-5.3,1.1,1.76-3.52-4.49,2.5.74-3.19-3.75,3.19.06-2.9-3.3,3.69-.17-2.84-2.45,3.64-.39-2.5L24,13.07l-.51-2.16-2.33,2.9-.8-1.94-2,2.88-1.09-1.68-2.44,3-.74-1.88-2,2.62-.9-.87-.76,1.71L9,17l-.9,2.13L6,18.81l-.53,2.33-.57-.57-.61,1.67-.41-.55-.52,1.66L2.77,23l-.85,1.57-.48-.07L1,26.12c0,.09-.13.86-.12.94h0L1,28.58l1.44.84a2.47,2.47,0,0,0,.79.36l1,.15L5,29.8l.51-.05.89.14H17.58A32.82,32.82,0,0,1,26.83,29a31.69,31.69,0,0,1,6.57.93,9.3,9.3,0,0,0,1.76-.18l1.58.8.7-1.39,2.84.48.27-1.6,2.34-.27-.22-1.82,3.65-.16ZM16,28a3,3,0,0,1-1.2-.25l-3.81-2v-1A2.8,2.8,0,0,1,13.84,22H16a3.13,3.13,0,0,1,1.7.51A2.93,2.93,0,0,1,19,25,3.1,3.1,0,0,1,16,28Z" fill="#fff"/>
    </g>
    <g id="Ears_and_Tail" data-name="Ears and Tail">
      <path d="M7.66,18.38l.95-2.27,1.52.64.89-2,.21.21a1.84,1.84,0,0,0,0-.33,2.63,2.63,0,1,0-5.26,0V18.1Z" fill="#d1c09b"/>
      <path d="M16,27.3a2.48,2.48,0,0,1-.86-.16L11.7,25.33v-.57a2.1,2.1,0,0,1,2.14-2.06H16a2.41,2.41,0,0,1,1.32.4,2.24,2.24,0,0,1,1,1.94A2.39,2.39,0,0,1,16,27.3Z" fill="#d1c09b"/>
      <path d="M47,22.52l-1.94.18,2.54,3.69-2.56.11a8.27,8.27,0,0,1-3.71,8.81,8.62,8.62,0,0,1-2.72,1.11,10.28,10.28,0,0,1-1.49.19l-1.69.08-13.55.65a11.25,11.25,0,0,0-6.81,2.1,8.2,8.2,0,0,0-3,6.4h0a.5.5,0,0,0,1,0,7,7,0,0,1,2.8-5.38,7.83,7.83,0,0,1,2.82-1.27A9.06,9.06,0,0,1,20.26,39c.52,0,1,0,1.63,0H37.18a13.52,13.52,0,0,0,1.89-.16,11.06,11.06,0,0,0,3.6-1.27,11.14,11.14,0,0,0,5-13.47A11.51,11.51,0,0,0,47,22.52Z" fill="#d1c09b"/>
    </g>
    <g id="Eye">
      <circle cx="7.63" cy="25.84" r="1.04" style="mix-blend-mode: multiply"/>
    </g>
  </g>
</svg>
