<svg xmlns="http://www.w3.org/2000/svg" width="50" height="50" viewBox="0 0 50 50">
  <g style="isolation: isolate">
    <g id="Mouse_Body" data-name="Mouse Body">
      <path d="M35,11a9.69,9.69,0,0,0-1.63-.14h0a9.54,9.54,0,0,0-1.52.14l-.69.12-1,.3c-.86.26-4.06,1.31-7.79,2.58H40.49A9.43,9.43,0,0,0,35,11Z" fill="#a99888"/>
      <path d="M13.76,17H42.3a9.4,9.4,0,0,0-1.81-3H22.37C19.55,15,16.43,16,13.76,17Z" fill="#b7a99c"/>
      <path d="M8.72,18.92A8.37,8.37,0,0,0,6.88,20h36a9.5,9.5,0,0,0-.33-2.14A8.57,8.57,0,0,0,42.3,17H13.76C11.67,17.75,9.86,18.43,8.72,18.92Z" fill="#c3b7ac"/>
      <path d="M3.88,22.76,3.64,23h8a2.83,2.83,0,0,1,2.17-1H16a3.13,3.13,0,0,1,1.7.51,2.66,2.66,0,0,1,.56.49H42.53a9.33,9.33,0,0,0,.37-3h-36A26.5,26.5,0,0,0,3.88,22.76Z" fill="#d2c9c1"/>
      <path d="M25.5,28.93c-.74,0-1.45,0-2.14.07h4.13c-.22,0-.43,0-.66,0Z" fill="#f3f1ef"/>
      <path d="M3.9,29.89h.25l1.38-.13.89.14H17.58A31.21,31.21,0,0,1,23.36,29H2A2.61,2.61,0,0,0,3.9,29.89Z" fill="#f3f1ef"/>
      <path d="M11.67,23h-8l-1,1-1.1,1.09A2.47,2.47,0,0,0,1,26H11.46L11,25.76v-1A2.71,2.71,0,0,1,11.67,23" fill="#e1dad5"/>
      <path d="M42.53,23H18.27A3,3,0,0,1,19,25a2.65,2.65,0,0,1-.19,1H41a9.58,9.58,0,0,0,1.49-3" fill="#e1dad5"/>
      <path d="M41,26H18.8A3.12,3.12,0,0,1,16,28a3,3,0,0,1-1.2-.25L11.46,26H1a2.46,2.46,0,0,0,.56,2.54l.25.25L2,29H23.36c.69,0,1.4-.07,2.14-.07l1.33,0c.23,0,.44,0,.66,0h9.87a9.76,9.76,0,0,0,1.5-.87A9.58,9.58,0,0,0,41,26" fill="#e9e5e1"/>
      <path d="M37.36,29H27.49a32,32,0,0,1,5.91.89,9.41,9.41,0,0,0,4-.89" fill="#f5f4f2"/>
    </g>
    <g id="Ears_and_Tail" data-name="Ears and Tail">
      <path d="M16,27.3a2.48,2.48,0,0,1-.86-.16L11.7,25.33v-.57a2.1,2.1,0,0,1,2.14-2.06H16a2.41,2.41,0,0,1,1.32.4,2.24,2.24,0,0,1,1,1.94A2.39,2.39,0,0,1,16,27.3Z" fill="#d1c09b"/>
      <path d="M11.26,14.63a2.63,2.63,0,1,0-5.26,0v5.93A6.76,6.76,0,0,1,8.9,18l1.1-.46,1-1.8v0A2.58,2.58,0,0,0,11.26,14.63Z" fill="#d1c09b"/>
      <path d="M47.7,24.09a11.52,11.52,0,0,0-1.92-3.46,9.32,9.32,0,0,0-.67-.74c-.23-.24-.48-.49-.68-.66l-1-.91a10.23,10.23,0,0,1-.24,4.58,8,8,0,0,1,1.43,2.32,8.2,8.2,0,0,1,.21,5.59,8.37,8.37,0,0,1-3.51,4.5,8.62,8.62,0,0,1-2.72,1.11,10.28,10.28,0,0,1-1.49.19l-1.69.08-13.55.65a11.25,11.25,0,0,0-6.81,2.1,8.2,8.2,0,0,0-3,6.4h0a.5.5,0,0,0,1,0,7,7,0,0,1,2.8-5.38,7.83,7.83,0,0,1,2.82-1.27A9.06,9.06,0,0,1,20.26,39c.52,0,1,0,1.63,0H37.18a13.52,13.52,0,0,0,1.89-.16,11.06,11.06,0,0,0,3.6-1.27,11.14,11.14,0,0,0,5-13.47Z" fill="#d1c09b"/>
    </g>
    <g id="Eye">
      <circle cx="7.63" cy="25.84" r="1.04" style="mix-blend-mode: multiply"/>
    </g>
  </g>
</svg>
