<svg xmlns="http://www.w3.org/2000/svg" width="50" height="50" viewBox="0 0 50 50"><g style="isolation:isolate"><path d="M9.1,18l1.1-.4v-.7h0a2.8,2.8,0,0,0,1.2-2.3A2.6,2.6,0,0,0,8.8,12a2.6,2.6,0,0,0-2.6,2.6v6A7.2,7.2,0,0,1,9.1,18Z" opacity="0.75"/><path d="M12.6,46.2h0a8.1,8.1,0,0,1,3.2-6.7A11.4,11.4,0,0,1,19.4,38h1c.7,0,16.7-.4,17.8-.6a8.7,8.7,0,0,0,5.6-3.2A8.6,8.6,0,0,0,45.6,28a8.1,8.1,0,0,0-2.1-4.9,12.4,12.4,0,0,0,.3-2.7,8.6,8.6,0,0,0-.1-1.6A8.7,8.7,0,0,1,45.1,20a11.2,11.2,0,0,1,3.4,7.8,10.7,10.7,0,0,1-2.8,7.8,12.3,12.3,0,0,1-2.8,2.3,11.6,11.6,0,0,1-5.6,1.3h-.4l-16.5-.4h-.9A7,7,0,0,0,16.1,40a7.6,7.6,0,0,0-3.4,6.2Z" fill="#f2e0cf"/><circle cx="7.6" cy="25.8" r="1" style="mix-blend-mode:multiply"/><path d="M16,27.3l-.9-.2-3.4-1.8v-.5a2.1,2.1,0,0,1,2.1-2.1H16a2,2,0,0,1,1.3.4,2.3,2.3,0,0,1,1,1.9A2.4,2.4,0,0,1,16,27.3Z" opacity="0.75"/><path d="M42.6,17.9a9.4,9.4,0,0,0-9.2-7l-2.2.2-1,.3H30V29.2l3.4.7a9.8,9.8,0,0,0,5.5-1.8A9.5,9.5,0,0,0,42.6,17.9Z" fill="#fff" opacity="0.9" style="mix-blend-mode:screen"/><g opacity="0.75"><path d="M17,15.9c-3.4,1.1-6.6,2.3-8.3,3a15.9,15.9,0,0,0-4.8,3.9h0L2.6,24a9.8,9.8,0,0,1-1.1,1.1,2.5,2.5,0,0,0,0,3.4l.3.3a2.7,2.7,0,0,0,2.4,1.1H17.6a30.4,30.4,0,0,1,9.2-.9l3.2.2V11.5C28.4,11.9,22.4,13.9,17,15.9Zm0,11.9L16,28l-1.2-.2-3.8-2v-1A2.8,2.8,0,0,1,13.8,22H16l1,.2.7.3A2.9,2.9,0,0,1,19,25,3.2,3.2,0,0,1,17,27.8Z"/></g><path d="M47.7,24.1a11.9,11.9,0,0,0-1.9-3.5l-.7-.7-.7-.7-.9-.9a11.8,11.8,0,0,1-.3,4.6,7.9,7.9,0,0,1,1.4,2.3,8.3,8.3,0,0,1,.3,5.6,8.4,8.4,0,0,1-3.6,4.5,8.1,8.1,0,0,1-2.7,1.1l-1.5.2H35.4l-13.5.6a11.9,11.9,0,0,0-6.8,2.1,8.3,8.3,0,0,0-3,6.4h0a.5.5,0,0,0,.5.5c.2.1.5-.2.5-.4a6.9,6.9,0,0,1,2.8-5.4,9,9,0,0,1,2.8-1.3l1.6-.2H37.2l1.9-.2a11.8,11.8,0,0,0,3.6-1.2,11.6,11.6,0,0,0,4.9-5.8A11.3,11.3,0,0,0,47.7,24.1Z" fill="#f7ebdf"/></g></svg>