<svg xmlns="http://www.w3.org/2000/svg" width="50" height="50" viewBox="0 0 50 50">
  <g style="isolation: isolate">
    <g id="Mouse_Body" data-name="Mouse Body">
      <path d="M16,27a3,3,0,0,1-1.2-.25l-3.81-2v-1A2.8,2.8,0,0,1,13.84,21H16a3.13,3.13,0,0,1,1.7.51A2.94,2.94,0,0,1,19,24a3.1,3.1,0,0,1-3,3M33.4,9.87h0a9,9,0,0,0-2.21.26l-1,.3C28.15,11,13.25,16,8.72,17.92a16.18,16.18,0,0,0-4.84,3.84h0L2.65,23l-1.1,1.09a2.45,2.45,0,0,0,0,3.46l.25.26A2.66,2.66,0,0,0,3.9,28.89h.25l1.38-.13.89.14H17.57a32.85,32.85,0,0,1,7.93-1l1.33,0a32.38,32.38,0,0,1,6.57.93,9.55,9.55,0,0,0,9.17-12,9.4,9.4,0,0,0-9.17-7" fill="#fbf9f3"/>
    </g>
    <g id="Ears_and_Tail" data-name="Ears and Tail">
      <path d="M19,24a3.1,3.1,0,0,1-3,3,3,3,0,0,1-1.2-.25l-3.81-2v-1A2.8,2.8,0,0,1,13.84,21H16a3.13,3.13,0,0,1,1.7.51A2.93,2.93,0,0,1,19,24Z" fill="#443729"/>
      <path d="M11.26,13.63a2.63,2.63,0,1,0-5.26,0v5.93A6.76,6.76,0,0,1,8.9,17l1.1-.46,1-1.8v0A2.58,2.58,0,0,0,11.26,13.63Z" fill="#443729"/>
      <path d="M47.7,24.09a11.52,11.52,0,0,0-1.92-3.46,9.32,9.32,0,0,0-.67-.74c-.23-.24-.48-.49-.68-.66l-1-.91a10.23,10.23,0,0,1-.24,4.58,8,8,0,0,1,1.43,2.32,8.2,8.2,0,0,1,.21,5.59,8.37,8.37,0,0,1-3.51,4.5,8.62,8.62,0,0,1-2.72,1.11,10.28,10.28,0,0,1-1.49.19l-1.69.08-13.55.65a11.25,11.25,0,0,0-6.81,2.1,8.2,8.2,0,0,0-3,6.4h0a.5.5,0,0,0,1,0,7,7,0,0,1,2.8-5.38,7.83,7.83,0,0,1,2.82-1.27A9.06,9.06,0,0,1,20.26,39c.52,0,1,0,1.63,0H37.18a13.52,13.52,0,0,0,1.89-.16,11.06,11.06,0,0,0,3.6-1.27,11.14,11.14,0,0,0,5-13.47Z" fill="#443729"/>
    </g>
    <g id="Shading">
      <path d="M3,22.63v6.1a2.88,2.88,0,0,1-1.22-.94l-.25-.25a2.46,2.46,0,0,1,0-3.47L2.65,23Z" fill="#443729"/>
      <path d="M6,19.72v9.1l-.47-.07-1.38.13A2.57,2.57,0,0,1,3,28.73v-6.1l.88-.87C4.58,21.05,5.28,20.34,6,19.72Z" fill="#695e51"/>
      <path d="M9,17.8V28.89H6.42L6,28.82v-9.1a10,10,0,0,1,2.72-1.8Z" fill="#ada396"/>
      <path d="M35,10V28.75a9.34,9.34,0,0,1-1.6.14c-.44-.11-.91-.22-1.4-.31V10a9.23,9.23,0,0,1,1.4-.11A9.42,9.42,0,0,1,35,10Z" fill="#202020" opacity="0.05"/>
      <path d="M38,11V27.67a8.91,8.91,0,0,1-3,1.08V10A9.61,9.61,0,0,1,38,11Z" fill="#ada396"/>
      <path d="M41,13.62V25.05a9.6,9.6,0,0,1-2.14,2.08,7.73,7.73,0,0,1-.86.54V11A9.25,9.25,0,0,1,41,13.62Z" fill="#695e51"/>
      <path d="M41,25.05V13.62a9.3,9.3,0,0,1,1.57,3.24A9.44,9.44,0,0,1,41,25.05Z" fill="#443729"/>
      <path d="M11,23.76v1l1,.52v3.61H9V17.8c.78-.32,1.81-.72,3-1.15v5A2.72,2.72,0,0,0,11,23.76Z" fill="#d4cbc1"/>
      <path d="M35,10V28.75a9.34,9.34,0,0,1-1.6.14c-.44-.11-.91-.22-1.4-.31V10a9.23,9.23,0,0,1,1.4-.11A9.42,9.42,0,0,1,35,10Z" fill="#d4cbc1"/>
      <path d="M32.06,10V28.59c-.92-.19-1.92-.35-3-.47V10.77l1.1-.34,1-.3C31.48,10.06,31.77,10,32.06,10Z" fill="#ebe6de"/>
      <path d="M15,15.55V21H13.84a2.87,2.87,0,0,0-1.84.66v-5C12.92,16.3,13.93,15.94,15,15.55Z" fill="#ebe6de"/>
      <path d="M15,26.84v2.05H12V25.28l2.81,1.47Z" fill="#ebe6de"/>
    </g>
    <g id="Eye">
      <circle cx="7.63" cy="24.84" r="1.04" style="mix-blend-mode: multiply"/>
    </g>
  </g>
</svg>
