<svg xmlns="http://www.w3.org/2000/svg" width="50" height="50" viewBox="0 0 50 50">
  <g id="Mouse_Body" data-name="Mouse Body">
    <path d="M16,28a3,3,0,0,1-1.2-.25l-3.81-2v-1A2.8,2.8,0,0,1,13.84,22H16a3.13,3.13,0,0,1,1.7.51A2.93,2.93,0,0,1,19,25a3.1,3.1,0,0,1-3,3M33.4,10.86h0a9.54,9.54,0,0,0-2.21.26l-1,.3c-2,.6-16.91,5.59-21.44,7.5a16.18,16.18,0,0,0-4.84,3.84L2.65,24l-1.1,1.09a2.46,2.46,0,0,0,0,3.47l.25.25a2.67,2.67,0,0,0,2.12,1.1h.25l1.38-.13.89.14H17.58a32.2,32.2,0,0,1,7.92-1l1.33,0a31.69,31.69,0,0,1,6.57.93,9.34,9.34,0,0,0,5.46-1.76A9.5,9.5,0,0,0,33.4,10.86" fill="#f7f7f7"/>
  </g>
  <g id="Ears_and_Tail" data-name="Ears and Tail">
    <path d="M16,27.3a2.48,2.48,0,0,1-.86-.16L11.7,25.33v-.57a2.1,2.1,0,0,1,2.14-2.06H16a2.41,2.41,0,0,1,1.32.4,2.24,2.24,0,0,1,1,1.94A2.39,2.39,0,0,1,16,27.3Z" fill="#c1c1c1"/>
    <path d="M11.26,14.63a2.63,2.63,0,1,0-5.26,0v5.93A6.76,6.76,0,0,1,8.9,18l1.1-.46,1-1.8v0A2.58,2.58,0,0,0,11.26,14.63Z" fill="#c1c1c1"/>
    <path d="M47.7,24.09a11.52,11.52,0,0,0-1.92-3.46,9.32,9.32,0,0,0-.67-.74c-.23-.24-.48-.49-.68-.66l-1-.91a10.23,10.23,0,0,1-.24,4.58,8,8,0,0,1,1.43,2.32,8.2,8.2,0,0,1,.21,5.59,8.37,8.37,0,0,1-3.51,4.5,8.62,8.62,0,0,1-2.72,1.11,10.28,10.28,0,0,1-1.49.19l-1.69.08-13.55.65a11.25,11.25,0,0,0-6.81,2.1,8.2,8.2,0,0,0-3,6.4h0a.5.5,0,0,0,1,0,7,7,0,0,1,2.8-5.38,7.83,7.83,0,0,1,2.82-1.27A9.06,9.06,0,0,1,20.26,39c.52,0,1,0,1.63,0H37.18a13.52,13.52,0,0,0,1.89-.16,11.06,11.06,0,0,0,3.6-1.27,11.14,11.14,0,0,0,5-13.47Z" fill="#c1c1c1"/>
  </g>
  <g id="Markings">
    <path d="M17.25,20.14h-.7l-.34-.6.34-.6h.7l.34.6ZM32.72,10.9a11.12,11.12,0,0,0-1.14.15l.18.31h.7ZM27.39,16h-.7l-.35.61.35.6h.7l.34-.6Zm-12.68,5.6.35-.6-.35-.61H14l-.35.61.35.6Zm9.1-3.53.35.6h.69l.35-.6-.35-.6h-.69Zm2.62,5.44h1.22l.61-1.05-.61-1.06H26.43l-.61,1.06ZM27.31,13h-.7l-.35.6.35.6h.7l.34-.6ZM28.8,26.81l.35.6h.69l.35-.6-.35-.6h-.69Zm9,.46H36.57L36,28.32l.59,1a9.3,9.3,0,0,0,1.74-.84l.11-.18Zm-2.54,1.46H34l.23-.41L34,27.91h1.21l.61-1.05-.61-1.05H34l-.61,1.05-.24-.41.61-1.05L33,23.93H31.26l-.84,1.47L31,26.45,30,28.32l.57,1c1,.16,2,.36,2.85.57l.36-.62-.3.53,0,.09a8.86,8.86,0,0,0,2.26-.3ZM41,26.1l-.4-.7H38.87L38,26.86l.77,1.32.07-.05A9.41,9.41,0,0,0,41,26.1Zm.68-7.61.24-.41-.24-.41h.87a9,9,0,0,0-.88-2.09l-.6,1-.24-.41H38.63l-1.08,1.87L38.63,20,38,21l.85,1.46h1.69L41.4,21,40.79,20l.24-.41.61,1.06h1.22l0-.08a9.48,9.48,0,0,0-.19-2ZM31.26,12.22l-.55-1-.55.16c-.36.11-1.15.36-2.22.72l-.06.08.61,1.06-1.08,1.87L28.49,17l-.61,1.06.85,1.46h1.69l.84-1.46L30.66,17l.54-.93-.31.53.61,1.05h1.22l.61-1.05-.61-1.06H31.5l.24-.41-.24-.41h1.22l.61-1.05-.61-1.06H31.5l-.61,1.06.31.53-.54-.94Zm-15,5.45h1.22l.61-1.05-.56-1-1.66.59-.22.38ZM4.57,24.53l.35-.6-.35-.6h-.7l-.34.6.34.6Zm.87,2.33-.61-1.05H3.61L3,26.86l-.23-.41.61-1.05L2.59,24l-1,1a2.46,2.46,0,0,0,0,3.47l.25.25A2.71,2.71,0,0,0,3,29.72l.27-.46L3,29.72a2.44,2.44,0,0,0,.86.17h.25l1.27-.12-.59-1H3.61l.24-.41-.24-.41H4.83Zm32.35-4.44-.34-.6h-.7l-.35.6.35.6h.7ZM37.53,16h-.06l0,0h-.7l-.35.6.35.6h0l0,0h.7l.34-.6ZM29.92,29.19h-.38l.41,0ZM37.53,26l.34-.6-.34-.61h-.7l-.35.61.35.6Zm.26-13.37H36.57L36,13.69l.61,1.05h1.22l.61-1.05Zm-.26,6.31h-.7l-.35.6.35.6h.7l.34-.6Zm-3.58,5,.35.6H35l.35-.6-.35-.6H34.3Zm-14.17.6.35-.6-.35-.6h-.69l-.32.55.09.26.23.39Zm21.86-.19L41,25.4l.2.34a10.14,10.14,0,0,0,.8-1.4ZM41,22.47l.61,1.05h.72a9.13,9.13,0,0,0,.48-2.11h-1.2Zm-31.28-4-.46.18h.35ZM6.06,25.4l.35.6H7.1l.35-.6-.35-.61H6.41Zm21.67,0-.34-.61h-.7l-.35.61.35.6h.7Zm-8-5H19l-.35.6.35.6h.69l.35-.6Zm-8.95-1.87-.61,1.05L11,21h1.69l.85-1.47-.61-1.05.24-.41.61,1.05H15l.61-1.05L15,17H13.76v0c-1.18.42-2.27.82-3.2,1.18ZM7.37,29.38,8,28.32l-.6-1.05H6.15l-.61,1.05.61,1.06Zm17.74-6.5H23.9l.23-.41-.23-.41h1.21l.61-1L25.11,20H23.9L23.29,21l-.24-.41.61-1.06-.85-1.46H21.12l-.84,1.46.61,1.06-1.08,1.87,1.08,1.87-.61,1.06.84,1.46h1.69l.85-1.46-.61-1.06.24-.41L23.9,25h1.21l.61-1.06Zm-.95,3.38-.35.6.35.6h.69l.35-.6-.35-.6Z" fill="#bfbfbf"/>
    <polygon points="21.35 23.53 22.57 23.53 23.18 22.47 22.57 21.42 21.35 21.42 20.74 22.47 21.35 23.53" fill="#949494"/>
    <polygon points="21.35 20.6 22.57 20.6 23.18 19.54 22.57 18.49 21.35 18.49 20.74 19.54 21.35 20.6" fill="#949494"/>
    <polygon points="28.93 16.14 30.15 16.14 30.76 15.09 30.15 14.03 28.93 14.03 28.32 15.09 28.93 16.14" fill="#949494"/>
    <polygon points="31.54 26.45 32.76 26.45 33.37 25.4 32.76 24.34 31.54 24.34 30.93 25.4 31.54 26.45" fill="#949494"/>
    <polygon points="39.09 19.13 40.31 19.13 40.91 18.08 40.31 17.02 39.09 17.02 38.48 18.08 39.09 19.13" fill="#949494"/>
    <polygon points="39.12 22.06 40.34 22.06 40.95 21.01 40.34 19.95 39.12 19.95 38.52 21.01 39.12 22.06" fill="#949494"/>
  </g>
  <g id="Eye">
    <circle cx="7.63" cy="25.84" r="1.04" fill="#221f20" fill-opacity="0.9"/>
  </g>
</svg>
