<svg xmlns="http://www.w3.org/2000/svg" xmlns:xlink="http://www.w3.org/1999/xlink" width="50" height="50" viewBox="0 0 50 50">
  <defs>
    <clipPath id="clip-path">
      <path d="M16,28a3,3,0,0,1-1.2-.25l-3.81-2v-1A2.8,2.8,0,0,1,13.84,22H16a3.13,3.13,0,0,1,1.7.51A2.93,2.93,0,0,1,19,25a3.1,3.1,0,0,1-3,3M33.4,10.86h0a9.54,9.54,0,0,0-2.21.26l-1,.3c-2,.6-16.91,5.59-21.44,7.5a16.18,16.18,0,0,0-4.84,3.84L2.65,24l-1.1,1.09a2.46,2.46,0,0,0,0,3.47l.25.25a2.67,2.67,0,0,0,2.12,1.1h.25l1.38-.13.89.14H17.58a32.2,32.2,0,0,1,7.92-1l1.33,0a31.69,31.69,0,0,1,6.57.93,9.34,9.34,0,0,0,5.46-1.76A9.5,9.5,0,0,0,33.4,10.86" fill="none"/>
    </clipPath>
  </defs>
  <g id="Mouse_Body" data-name="Mouse Body">
    <path d="M16,28a3,3,0,0,1-1.2-.25l-3.81-2v-1A2.8,2.8,0,0,1,13.84,22H16a3.13,3.13,0,0,1,1.7.51A2.93,2.93,0,0,1,19,25a3.1,3.1,0,0,1-3,3M33.4,10.86h0a9.54,9.54,0,0,0-2.21.26l-1,.3c-2,.6-16.91,5.59-21.44,7.5a16.18,16.18,0,0,0-4.84,3.84L2.65,24l-1.1,1.09a2.46,2.46,0,0,0,0,3.47l.25.25a2.67,2.67,0,0,0,2.12,1.1h.25l1.38-.13.89.14H17.58a32.2,32.2,0,0,1,7.92-1l1.33,0a31.69,31.69,0,0,1,6.57.93,9.34,9.34,0,0,0,5.46-1.76A9.5,9.5,0,0,0,33.4,10.86" fill="#fff"/>
  </g>
  <g id="Ears_and_Tail" data-name="Ears and Tail">
    <path d="M16,27.3a2.48,2.48,0,0,1-.86-.16L11.7,25.33v-.57a2.1,2.1,0,0,1,2.14-2.06H16a2.41,2.41,0,0,1,1.32.4,2.24,2.24,0,0,1,1,1.94A2.39,2.39,0,0,1,16,27.3Z" fill="#c1c1c1"/>
    <path d="M11.26,14.63a2.63,2.63,0,1,0-5.26,0v5.93A6.76,6.76,0,0,1,8.9,18l1.1-.46,1-1.8v0A2.58,2.58,0,0,0,11.26,14.63Z" fill="#c1c1c1"/>
    <path d="M47.7,24.09a11.52,11.52,0,0,0-1.92-3.46,9.32,9.32,0,0,0-.67-.74c-.23-.24-.48-.49-.68-.66l-1-.91a10.23,10.23,0,0,1-.24,4.58,8,8,0,0,1,1.43,2.32,8.2,8.2,0,0,1,.21,5.59,8.37,8.37,0,0,1-3.51,4.5,8.62,8.62,0,0,1-2.72,1.11,10.28,10.28,0,0,1-1.49.19l-1.69.08-13.55.65a11.25,11.25,0,0,0-6.81,2.1,8.2,8.2,0,0,0-3,6.4h0a.5.5,0,0,0,1,0,7,7,0,0,1,2.8-5.38,7.83,7.83,0,0,1,2.82-1.27A9.06,9.06,0,0,1,20.26,39c.52,0,1,0,1.63,0H37.18a13.52,13.52,0,0,0,1.89-.16,11.06,11.06,0,0,0,3.6-1.27,11.14,11.14,0,0,0,5-13.47Z" fill="#c1c1c1"/>
  </g>
  <g id="Markings">
    <g clip-path="url(#clip-path)">
      <rect x="26" y="20" width="4" height="1" fill="#999" opacity="0.7"/>
      <rect x="25" y="20" width="1" height="1" fill="#999" opacity="0.3"/>
      <rect x="30" y="20" width="1" height="1" fill="#999" opacity="0.3"/>
      <rect x="24" y="20" width="1" height="1" fill="#999" opacity="0.1"/>
      <rect x="31" y="20" width="1" height="1" fill="#999" opacity="0.1"/>
      <rect x="28" y="19" width="1" height="1" fill="#999" opacity="0.7"/>
      <rect x="27" y="19" width="1" height="1" fill="#999" opacity="0.3"/>
      <rect x="29" y="19" width="1" height="1" fill="#999" opacity="0.3"/>
      <rect x="26" y="19" width="1" height="1" fill="#999" opacity="0.1"/>
      <rect x="30" y="19" width="1" height="1" fill="#999" opacity="0.1"/>
      <rect x="27" y="21" width="2" height="1" fill="#999" opacity="0.7"/>
      <rect x="26" y="21" width="1" height="1" fill="#999" opacity="0.3"/>
      <rect x="29" y="21" width="1" height="1" fill="#999" opacity="0.3"/>
      <rect x="25" y="21" width="1" height="1" fill="#999" opacity="0.1"/>
      <rect x="30" y="21" width="1" height="1" fill="#999" opacity="0.1"/>
      <rect x="27" y="22" width="1" height="1" fill="#999" opacity="0.7"/>
      <rect x="26" y="22" width="1" height="1" fill="#999" opacity="0.3"/>
      <rect x="28" y="22" width="1" height="1" fill="#999" opacity="0.3"/>
      <rect x="25" y="22" width="1" height="1" fill="#999" opacity="0.1"/>
      <rect x="29" y="22" width="1" height="1" fill="#999" opacity="0.1"/>
      <rect x="35" y="13" width="1" height="1" fill="#999" opacity="0.7"/>
      <rect x="34" y="13" width="1" height="1" fill="#999" opacity="0.3"/>
      <rect x="36" y="13" width="1" height="1" fill="#999" opacity="0.3"/>
      <rect x="33" y="13" width="1" height="1" fill="#999" opacity="0.1"/>
      <rect x="37" y="13" width="1" height="1" fill="#999" opacity="0.1"/>
      <rect x="34" y="12" width="2" height="1" fill="#999" opacity="0.1"/>
      <rect x="36" y="15" width="2" height="1" fill="#999" opacity="0.1"/>
      <rect x="27" y="18" width="3" height="1" fill="#999" opacity="0.1"/>
      <rect x="27" y="15" width="1" height="1" fill="#999" opacity="0.7"/>
      <rect x="26" y="15" width="1" height="1" fill="#999" opacity="0.3"/>
      <rect x="28" y="15" width="1" height="1" fill="#999" opacity="0.3"/>
      <rect x="25" y="15" width="1" height="1" fill="#999" opacity="0.1"/>
      <rect x="29" y="15" width="1" height="1" fill="#999" opacity="0.1"/>
      <rect x="26" y="14" width="3" height="1" fill="#999" opacity="0.1"/>
      <rect x="26" y="16" width="3" height="1" fill="#999" opacity="0.1"/>
      <rect x="36" y="19" width="2" height="1" fill="#999" opacity="0.7"/>
      <rect x="35" y="19" width="1" height="1" fill="#999" opacity="0.3"/>
      <rect x="38" y="19" width="1" height="1" fill="#999" opacity="0.3"/>
      <rect x="34" y="19" width="1" height="1" fill="#999" opacity="0.1"/>
      <rect x="39" y="19" width="1" height="1" fill="#999" opacity="0.1"/>
      <rect x="35" y="18" width="4" height="1" fill="#999" opacity="0.1"/>
      <rect x="35" y="20" width="4" height="1" fill="#999" opacity="0.1"/>
      <rect x="38" y="22" width="4" height="1" fill="#999" opacity="0.1"/>
      <rect x="20" y="21" width="2" height="1" fill="#999" opacity="0.7"/>
      <rect x="19" y="21" width="1" height="1" fill="#999" opacity="0.3"/>
      <rect x="22" y="21" width="1" height="1" fill="#999" opacity="0.3"/>
      <rect x="18" y="21" width="1" height="1" fill="#999" opacity="0.1"/>
      <rect x="23" y="21" width="1" height="1" fill="#999" opacity="0.1"/>
      <rect x="19" y="20" width="4" height="1" fill="#999" opacity="0.1"/>
      <rect x="19" y="22" width="4" height="1" fill="#999" opacity="0.1"/>
      <rect x="21" y="24" width="5" height="1" fill="#999" opacity="0.1"/>
      <rect x="8" y="21" width="1" height="1" fill="#999" opacity="0.7"/>
      <rect x="7" y="21" width="1" height="1" fill="#999" opacity="0.3"/>
      <rect x="9" y="21" width="1" height="1" fill="#999" opacity="0.3"/>
      <rect x="6" y="21" width="1" height="1" fill="#999" opacity="0.1"/>
      <rect x="10" y="21" width="1" height="1" fill="#999" opacity="0.1"/>
      <rect x="7" y="20" width="3" height="1" fill="#999" opacity="0.1"/>
      <rect x="7" y="22" width="3" height="1" fill="#999" opacity="0.1"/>
      <rect x="32" y="27" width="2" height="1" fill="#999" opacity="0.7"/>
      <rect x="31" y="27" width="1" height="1" fill="#999" opacity="0.3"/>
      <rect x="34" y="27" width="1" height="1" fill="#999" opacity="0.3"/>
      <rect x="30" y="27" width="1" height="1" fill="#999" opacity="0.1"/>
      <rect x="35" y="27" width="1" height="1" fill="#999" opacity="0.1"/>
      <rect x="31" y="26" width="4" height="1" fill="#999" opacity="0.1"/>
      <rect x="31" y="28" width="4" height="1" fill="#999" opacity="0.1"/>
      <rect x="26" y="23" width="3" height="1" fill="#999" opacity="0.1"/>
      <rect x="36" y="14" width="1" height="1" fill="#999" opacity="0.7"/>
      <rect x="35" y="14" width="1" height="1" fill="#999" opacity="0.3"/>
      <rect x="37" y="14" width="1" height="1" fill="#999" opacity="0.3"/>
      <rect x="34" y="14" width="1" height="1" fill="#999" opacity="0.1"/>
      <rect x="38" y="14" width="1" height="1" fill="#999" opacity="0.1"/>
      <rect x="15" y="17" width="2" height="1" fill="#999" opacity="0.7"/>
      <rect x="14" y="17" width="1" height="1" fill="#999" opacity="0.3"/>
      <rect x="17" y="17" width="1" height="1" fill="#999" opacity="0.3"/>
      <rect x="13" y="17" width="1" height="1" fill="#999" opacity="0.1"/>
      <rect x="18" y="17" width="1" height="1" fill="#999" opacity="0.1"/>
      <rect x="14" y="16" width="3" height="1" fill="#999" opacity="0.1"/>
      <rect x="14" y="19" width="3" height="1" fill="#999" opacity="0.1"/>
      <rect x="14" y="18" width="2" height="1" fill="#999" opacity="0.7"/>
      <rect x="13" y="18" width="1" height="1" fill="#999" opacity="0.3"/>
      <rect x="16" y="18" width="1" height="1" fill="#999" opacity="0.3"/>
      <rect x="12" y="18" width="1" height="1" fill="#999" opacity="0.1"/>
      <rect x="17" y="18" width="1" height="1" fill="#999" opacity="0.1"/>
      <rect x="38" y="24" width="2" height="1" fill="#999" opacity="0.7"/>
      <rect x="37" y="24" width="1" height="1" fill="#999" opacity="0.3"/>
      <rect x="40" y="24" width="1" height="1" fill="#999" opacity="0.3"/>
      <rect x="36" y="24" width="1" height="1" fill="#999" opacity="0.1"/>
      <rect x="41" y="24" width="1" height="1" fill="#999" opacity="0.1"/>
      <rect x="39" y="23" width="2" height="1" fill="#999" opacity="0.7"/>
      <rect x="38" y="23" width="1" height="1" fill="#999" opacity="0.3"/>
      <rect x="41" y="23" width="1" height="1" fill="#999" opacity="0.3"/>
      <rect x="37" y="23" width="1" height="1" fill="#999" opacity="0.1"/>
      <rect x="42" y="23" width="1" height="1" fill="#999" opacity="0.1"/>
      <rect x="39" y="25" width="2" height="1" fill="#999" opacity="0.7"/>
      <rect x="38" y="25" width="1" height="1" fill="#999" opacity="0.3"/>
      <rect x="41" y="25" width="1" height="1" fill="#999" opacity="0.3"/>
      <rect x="37" y="25" width="1" height="1" fill="#999" opacity="0.1"/>
      <rect x="40" y="26" width="1" height="1" fill="#999" opacity="0.7"/>
      <rect x="39" y="26" width="1" height="1" fill="#999" opacity="0.3"/>
      <rect x="38" y="26" width="1" height="1" fill="#999" opacity="0.1"/>
      <rect x="21" y="26" width="3" height="1" fill="#999" opacity="0.7"/>
      <rect x="20" y="26" width="1" height="1" fill="#999" opacity="0.3"/>
      <rect x="24" y="26" width="1" height="1" fill="#999" opacity="0.3"/>
      <rect x="19" y="26" width="1" height="1" fill="#999" opacity="0.1"/>
      <rect x="25" y="26" width="1" height="1" fill="#999" opacity="0.1"/>
      <rect x="22" y="25" width="3" height="1" fill="#999" opacity="0.7"/>
      <rect x="21" y="25" width="1" height="1" fill="#999" opacity="0.3"/>
      <rect x="25" y="25" width="1" height="1" fill="#999" opacity="0.3"/>
      <rect x="20" y="25" width="1" height="1" fill="#999" opacity="0.1"/>
      <rect x="26" y="25" width="1" height="1" fill="#999" opacity="0.1"/>
      <rect x="22" y="27" width="3" height="1" fill="#999" opacity="0.7"/>
      <rect x="21" y="27" width="1" height="1" fill="#999" opacity="0.3"/>
      <rect x="25" y="27" width="1" height="1" fill="#999" opacity="0.3"/>
      <rect x="20" y="27" width="1" height="1" fill="#999" opacity="0.1"/>
      <rect x="26" y="27" width="1" height="1" fill="#999" opacity="0.1"/>
      <rect x="24" y="28" width="2" height="1" fill="#999" opacity="0.7"/>
      <rect x="23" y="28" width="1" height="1" fill="#999" opacity="0.3"/>
      <rect x="26" y="28" width="1" height="1" fill="#999" opacity="0.3"/>
      <rect x="22" y="28" width="1" height="1" fill="#999" opacity="0.1"/>
      <rect x="27" y="28" width="1" height="1" fill="#999" opacity="0.1"/>
      <rect x="5" y="28" width="2" height="1" fill="#999" opacity="0.7"/>
      <rect x="4" y="28" width="1" height="1" fill="#999" opacity="0.3"/>
      <rect x="7" y="28" width="1" height="1" fill="#999" opacity="0.3"/>
      <rect x="3" y="28" width="1" height="1" fill="#999" opacity="0.1"/>
      <rect x="8" y="28" width="1" height="1" fill="#999" opacity="0.1"/>
      <rect x="4" y="27" width="2" height="1" fill="#999" opacity="0.7"/>
      <rect x="3" y="27" width="1" height="1" fill="#999" opacity="0.3"/>
      <rect x="6" y="27" width="1" height="1" fill="#999" opacity="0.3"/>
      <rect x="2" y="27" width="1" height="1" fill="#999" opacity="0.1"/>
      <rect x="7" y="27" width="1" height="1" fill="#999" opacity="0.1"/>
    </g>
  </g>
  <g id="Eye">
    <circle cx="7.63" cy="25.84" r="1.04" fill="#221f20" fill-opacity="0.9"/>
  </g>
</svg>
