<?xml version="1.0" encoding="utf-8"?>
<svg xmlns="http://www.w3.org/2000/svg" xmlns:xlink="http://www.w3.org/1999/xlink" style="margin: auto; background: rgba(255, 255, 255, 0); display: block; shape-rendering: auto;" width="66px" height="66px" viewBox="0 0 100 100" preserveAspectRatio="xMidYMid">
<g transform="rotate(0 50 50)">
  <rect x="40.5" y="11.5" rx="9.5" ry="9.5" width="19" height="19" fill="#926a36">
    <animate attributeName="opacity" values="1;0" keyTimes="0;1" dur="1.1111111111111112s" begin="-0.9722222222222222s" repeatCount="indefinite"></animate>
  </rect>
</g><g transform="rotate(45 50 50)">
  <rect x="40.5" y="11.5" rx="9.5" ry="9.5" width="19" height="19" fill="#926a36">
    <animate attributeName="opacity" values="1;0" keyTimes="0;1" dur="1.1111111111111112s" begin="-0.8333333333333333s" repeatCount="indefinite"></animate>
  </rect>
</g><g transform="rotate(90 50 50)">
  <rect x="40.5" y="11.5" rx="9.5" ry="9.5" width="19" height="19" fill="#926a36">
    <animate attributeName="opacity" values="1;0" keyTimes="0;1" dur="1.1111111111111112s" begin="-0.6944444444444444s" repeatCount="indefinite"></animate>
  </rect>
</g><g transform="rotate(135 50 50)">
  <rect x="40.5" y="11.5" rx="9.5" ry="9.5" width="19" height="19" fill="#926a36">
    <animate attributeName="opacity" values="1;0" keyTimes="0;1" dur="1.1111111111111112s" begin="-0.5555555555555556s" repeatCount="indefinite"></animate>
  </rect>
</g><g transform="rotate(180 50 50)">
  <rect x="40.5" y="11.5" rx="9.5" ry="9.5" width="19" height="19" fill="#926a36">
    <animate attributeName="opacity" values="1;0" keyTimes="0;1" dur="1.1111111111111112s" begin="-0.41666666666666663s" repeatCount="indefinite"></animate>
  </rect>
</g><g transform="rotate(225 50 50)">
  <rect x="40.5" y="11.5" rx="9.5" ry="9.5" width="19" height="19" fill="#926a36">
    <animate attributeName="opacity" values="1;0" keyTimes="0;1" dur="1.1111111111111112s" begin="-0.2777777777777778s" repeatCount="indefinite"></animate>
  </rect>
</g><g transform="rotate(270 50 50)">
  <rect x="40.5" y="11.5" rx="9.5" ry="9.5" width="19" height="19" fill="#926a36">
    <animate attributeName="opacity" values="1;0" keyTimes="0;1" dur="1.1111111111111112s" begin="-0.1388888888888889s" repeatCount="indefinite"></animate>
  </rect>
</g><g transform="rotate(315 50 50)">
  <rect x="40.5" y="11.5" rx="9.5" ry="9.5" width="19" height="19" fill="#926a36">
    <animate attributeName="opacity" values="1;0" keyTimes="0;1" dur="1.1111111111111112s" begin="0s" repeatCount="indefinite"></animate>
  </rect>
</g>
<!-- [ldio] generated by https://loading.io/ --></svg>