<?xml version="1.0" encoding="UTF-8"?>
<svg id="Ebene_10" data-name="Ebene 10" xmlns="http://www.w3.org/2000/svg" width="28" height="28" xmlns:xlink="http://www.w3.org/1999/xlink" viewBox="0 0 28 28">
  <defs>
    <clipPath id="clippath">
      <path d="M0,0V28H28V0H0ZM4.97,26.89l-1.41-1.41L25.07,3.97l1.41,1.41L4.97,26.89Z" fill="none"/>
    </clipPath>
  </defs>
  <g clip-path="url(#clippath)">
    <path d="M16.19,10.77s6.88-2.85,8.28-3.35c.22-.08,.45-.12,.67-.11,.7,.05,1.28,.59,1.56,1.08,.6,1.06,.16,2.41-.08,3.16-.2,.63-.83,2.54-2.59,3.43-1.52,.77-3.32,.48-4.67-.7" fill="none" stroke="#000" stroke-linecap="square" stroke-miterlimit="10" stroke-width="2"/>
    <path d="M11.81,10.77S4.92,7.92,3.53,7.42c-.22-.08-.45-.12-.67-.11-.7,.05-1.28,.59-1.56,1.08-.6,1.06-.16,2.41,.08,3.16,.2,.63,.83,2.54,2.59,3.43,1.52,.77,3.32,.48,4.67-.7" fill="none" stroke="#000" stroke-linecap="square" stroke-miterlimit="10" stroke-width="2"/>
    <path d="M16.98,22.51c-.41,0-.87-.06-1.41-.19-.5-.12-1.03-.3-1.58-.53-.55,.23-1.08,.41-1.58,.53-.53,.13-.99,.19-1.4,.19-1.24,0-2.31-.44-3.18-1.31-.87-.87-1.31-1.94-1.31-3.18,0-.59,.16-1.18,.48-1.73,.29-.51,.71-1,1.24-1.46,.19-.17,.42-.4,.67-.66,.25-.26,.47-.51,.67-.77,.72-.95,1.37-1.55,1.96-1.84,.59-.28,1.39-.42,2.45-.42s1.86,.14,2.45,.42c.59,.28,1.24,.89,1.97,1.85,.19,.25,.42,.5,.66,.76,.25,.26,.48,.49,.69,.68,.52,.45,.93,.94,1.22,1.44,.32,.56,.48,1.14,.48,1.73,0,1.24-.44,2.31-1.31,3.18-.87,.87-1.94,1.31-3.18,1.31Z" fill="none" stroke="#000" stroke-linecap="square" stroke-miterlimit="10" stroke-width="2"/>
    <path d="M13.67,20.94c-.22-.1-.42-.27-.6-.51-.18-.24-.27-.45-.27-.63,0-.16,.11-.3,.34-.42,.23-.12,.51-.18,.85-.18s.62,.06,.85,.18c.23,.12,.34,.26,.34,.42,0,.18-.09,.39-.27,.63-.18,.24-.38,.41-.6,.51h-.66Z"/>
    <path d="M16.69,17.22c-.16,0-.3-.09-.42-.27-.12-.18-.18-.39-.18-.63s.06-.45,.18-.63c.12-.18,.26-.27,.42-.27s.3,.09,.42,.27c.12,.18,.18,.39,.18,.63s-.06,.45-.18,.63c-.12,.18-.26,.27-.42,.27Z"/>
  </g>
  <line x1="4.06" y1="24.35" x2="24.15" y2="4.25" fill="none" stroke="#000" stroke-linecap="square" stroke-miterlimit="10" stroke-width="2"/>
</svg>