<svg xmlns="http://www.w3.org/2000/svg" width="50" height="50" viewBox="0 0 50 50">
  <path d="M16.007,28a3.08,3.08,0,0,1-1.2-.25L11,25.759v-1A2.8,2.8,0,0,1,13.845,22h2.167a3.108,3.108,0,0,1,1.7.512,2.938,2.938,0,0,1,1.279,2.529A3.1,3.1,0,0,1,16.007,28M33.4,10.863h0a9.278,9.278,0,0,0-2.208.262l-1.029.3c-2.015.6-16.909,5.584-21.444,7.493a16.219,16.219,0,0,0-4.835,3.841L2.649,23.982c-.084.081-.561.555-1.1,1.092a2.456,2.456,0,0,0-.02,3.463l.252.256a2.649,2.649,0,0,0,2.118,1.1c.084,0,.169,0,.256-.012.455-.039.92-.078,1.375-.126.291.048.591.087.892.136H17.575A32.723,32.723,0,0,1,25.5,28.93q.651,0,1.327.026a32.428,32.428,0,0,1,6.571.931,9.376,9.376,0,0,0,5.456-1.754A9.493,9.493,0,0,0,33.4,10.863" fill="#9e9fae"/>
  <g>
    <path d="M16.007,27.3a2.523,2.523,0,0,1-.86-.162l-3.447-1.8v-.578A2.1,2.1,0,0,1,13.845,22.7h2.167a2.408,2.408,0,0,1,1.318.4,2.249,2.249,0,0,1,.962,1.943A2.394,2.394,0,0,1,16.007,27.3Z" fill="#f2e0cf"/>
    <path d="M11.263,14.631a2.632,2.632,0,0,0-5.263,0v5.926a6.815,6.815,0,0,1,2.9-2.54c.361-.153.736-.3,1.1-.454l1.012-1.8,0-.022A2.6,2.6,0,0,0,11.263,14.631Z" fill="#f2e0cf"/>
    <path d="M47.984,22.314a10.029,10.029,0,0,0-2.9-2.944,12.487,12.487,0,0,0-1.706-.929,10.319,10.319,0,0,1,.069,3.916,6.3,6.3,0,0,1,2.744,7.088A6.457,6.457,0,0,1,42.7,33.729a7.6,7.6,0,0,1-2.866.676c-.922.043-2.163-.154-3.293-.232L22.751,32.92a11.729,11.729,0,0,0-7.134,1.191,11.318,11.318,0,0,0-4.933,5.211.506.506,0,0,0,.225.657.5.5,0,0,0,.673-.217,10.016,10.016,0,0,1,10.972-5.216l13.721,1.887,1.716.236a12.622,12.622,0,0,0,1.88.171,10.109,10.109,0,0,0,3.866-.733,9.216,9.216,0,0,0,5.255-5.864A9.657,9.657,0,0,0,47.984,22.314Z" fill="#f2e0cf"/>
  </g>
  <circle cx="7.633" cy="25.841" r="1.039" fill="#d73a31" fill-opacity="0.9"/>
</svg>
