<?xml version="1.0" encoding="UTF-8"?>
<svg xmlns="http://www.w3.org/2000/svg" width="50" height="50" viewBox="0 0 50 50">
  <g isolation="isolate">
    <g id="b" data-name="Mouse Body">
      <path d="M16.007,28.001c-.333,0-.915-.092-1.2-.25l-3.808-1.992v-1.001c0-1.521,1.269-2.758,2.845-2.758h2.167c.6,0,1.188,.177,1.701,.511,.866,.565,1.28,1.524,1.28,2.53,0,1.529-1.418,2.961-2.985,2.961M33.401,10.863h-.001c-.756,0-1.492,.087-2.208,.262l-1.029,.298c-2.015,.595-16.909,5.584-21.444,7.494-1.806,.761-3.311,2.293-4.835,3.84h0s-1.234,1.225-1.234,1.225c-.084,.081-.561,.556-1.102,1.092-.958,.952-.967,2.5-.02,3.463l.252,.256c.498,.652,1.235,1.096,2.118,1.096,.084,0,.169-.004,.255-.012,.455-.039,.92-.077,1.376-.126,.29,.049,.591,.087,.892,.136h11.154c2.039-.512,4.745-.956,7.928-.956,.434,0,.876,.008,1.327,.026,2.549,.097,4.768,.485,6.571,.93,2.025,0,3.905-.649,5.456-1.754,3.072-2.157,4.825-6.109,3.716-10.273-1.112-4.179-4.849-6.996-9.173-6.996" fill="#f3dace"/>
    </g>
    <g id="c" data-name="Ears and Tail">
      <path d="M16.007,27.301c-.292,0-.732-.091-.86-.162l-3.447-1.804v-.578c0-1.135,.962-2.058,2.145-2.058h2.167c.464,0,.92,.137,1.319,.397,.611,.399,.961,1.107,.961,1.944,0,1.162-1.11,2.26-2.285,2.26Z" fill="#f7ebdf"/>
      <path d="M11.441,14.634c0-1.454-1.178-2.631-2.631-2.631s-2.631,1.178-2.631,2.631v5.925c.684-1.107,1.846-2.095,2.899-2.54,.361-.153,.736-.302,1.103-.454l1.012-1.803-.002-.022c.157-.337,.251-.71,.251-1.106Z" fill="#f7ebdf"/>
      <path d="M47.984,22.314c-.744-1.19-1.771-2.179-2.901-2.943-.547-.355-1.116-.666-1.706-.929,.277,1.323,.294,2.647,.07,3.916,.721,.471,1.356,1.041,1.833,1.727,1.041,1.49,1.398,3.517,.911,5.362-.464,1.848-1.738,3.477-3.489,4.283-.876,.401-1.861,.639-2.866,.677-.922,.042-2.163-.154-3.293-.232l-13.792-1.254c-2.355-.335-4.987,.017-7.134,1.191-2.179,1.145-3.909,3.023-4.932,5.211-.11,.241-.014,.534,.225,.657,.246,.126,.547,.029,.673-.217,1.022-1.945,2.667-3.56,4.626-4.472,1.976-.94,4.151-1.151,6.346-.744l13.721,1.888,1.715,.236c.532,.077,1.233,.178,1.88,.171,1.303,.01,2.619-.229,3.866-.733,2.518-1.013,4.481-3.27,5.255-5.864,.808-2.589,.485-5.545-1.008-7.929Z" fill="#f7ebdf"/>
    </g>
    <g id="e" data-name="Ticking">
      <g opacity=".5">
        <path d="M22.335,25.218l-3.876,.646c.119-.293,.207-.603,.236-.937,.009-.105,.007-.21,.005-.315l3.636,.606Zm8.554-2.139v1.426l4.277-.713-4.277-.713Zm-8.554,0v1.426l4.277-.713-4.277-.713Zm0,2.851v1.426l4.277-.713-4.277-.713Zm4.277-1.426v1.426l4.277-.713-4.277-.713Zm8.554,0v1.426l4.277-.713-4.277-.713Zm-8.554-2.851v1.426l4.277-.713-4.277-.713Zm8.554-10.625v.645l1.485-.248c-.479-.171-.976-.304-1.485-.398Zm0,10.625v1.426l4.277-.713-4.277-.713Zm0-7.129l4.277-.713-4.277-.713v1.426Zm0,1.426v1.426l4.277-.713-4.277-.713Zm0,2.851v1.426l4.277-.713-4.277-.713Zm4.277-2.851l2.194-.366c-.154-.27-.324-.528-.503-.778l-1.691-.282v1.426Zm-8.554,2.851l4.277-.713-4.277-.713v1.426Zm-17.109,1.426v1.366c.064-.004,.124-.019,.189-.019h.284l3.804-.634-4.277-.713Zm4.277,0l4.277-.713-4.277-.713v1.426Zm12.831-5.703v1.426l4.277-.713-4.277-.713Zm-8.554,7.841l-4.277-.713v1.16c.059,.077,.117,.155,.169,.237l4.108-.685Zm17.109-3.564l3.221-.537c-.027-.122-.05-.243-.082-.366l-3.139-.523v1.426Zm-17.109,0l4.277-.713-4.277-.713v1.426Zm8.554,2.851l4.277-.713-4.277-.713v1.426Zm-8.554,0l4.277-.713-4.277-.713v1.426Zm4.277-4.277l4.277-.713-4.277-.713v1.426Zm0,2.851l4.277-.713-4.277-.713v1.426Zm4.277,5.703v1.426l4.277-.713-4.277-.713Zm-17.109,3.956h1.927l2.35-.392-4.277-.713v1.104Zm4.277-2.53v1.426l4.277-.713-4.277-.713Zm4.277,1.822c.499-.054,1.011-.103,1.524-.142l-1.524-.254v.396Zm-17.109,.601c.101-.01,.203-.017,.303-.028,.291,.048,.591,.087,.892,.136h.733l2.35-.392-4.277-.713v.997Zm4.277-2.422v1.426l4.277-.713-4.277-.713Zm25.663,1.426l3.62-.603c.023-.016,.047-.03,.07-.046,.06-.042,.115-.089,.174-.132l-3.864-.644v1.426Zm-8.554,0l4.277-.713-4.277-.713v1.426Zm12.831-8.554v1.426l3.433-.572c.007-.093,.014-.185,.018-.278l-3.451-.575Zm0,4.277l2.708-.451c.069-.162,.134-.325,.194-.491l-2.903-.484v1.426Zm0,2.851l.458-.076c.364-.341,.701-.711,1.008-1.105l-1.466-.244v1.426ZM.949,27.356v.203c.113,.356,.299,.694,.579,.978l.125,.128,3.573-.595-4.277-.713ZM22.335,14.525v1.426l4.277-.713-4.277-.713Zm-8.554,2.851v1.426l4.277-.713-4.277-.713Zm4.277-1.426v1.426l4.277-.713-4.277-.713Zm12.831-4.277v1.426l4.277-.713-4.277-.713Zm-4.277,1.426v1.426l4.277-.713-4.277-.713Zm-17.109,5.703v1.426l4.277-.713-4.277-.713Zm-3.152,1.613c-.382,.316-.756,.654-1.126,1.007v.231l4.277-.713-3.152-.525Zm-1.126,2.664v1.426l4.277-.713-4.277-.713Zm0,4.277l4.277-.713-1.061-.177c-.19,.247-.474,.416-.809,.416-.457,0-.834-.301-.973-.713l-1.434-.239v1.426Zm-3.274-2.684c-.127,.126-.263,.261-.405,.402-.25,.249-.432,.539-.553,.848l4.232-.705-3.274-.546Zm10.322-2.557l-2.771-.462v1.426l2.147-.358c.18-.23,.385-.438,.624-.606Zm-2.771,2.39v1.426l1.707-.285-.198-.118v-.772l-1.509-.251Z" fill="#fff"/>
      </g>
    </g>
    <g id="i" data-name="Eye">
      <circle cx="7.633" cy="25.841" r="1.039" fill="#d73a31" mix-blend-mode="multiply" opacity=".9"/>
    </g>
  </g>
</svg>