<?xml version="1.0" encoding="UTF-8"?>
<svg id="Ebene_10" data-name="Ebene 10" xmlns="http://www.w3.org/2000/svg" width="24" height="28" viewBox="0 0 24 28">
  <path d="M11.5,18.73c-3.58,0-6.5-2.92-6.5-6.5V7h13v5.23c0,3.58-2.92,6.5-6.5,6.5Z" fill="none" stroke="#000" stroke-linecap="square" stroke-miterlimit="10" stroke-width="2"/>
  <path d="M5,5H2v5.64c0,.91,.8,1.73,2,2.26" fill="none" stroke="#000" stroke-linecap="square" stroke-miterlimit="10" stroke-width="2"/>
  <path d="M18,5h3v5.64c0,.91-.8,1.73-2,2.26" fill="none" stroke="#000" stroke-linecap="square" stroke-miterlimit="10" stroke-width="2"/>
  <path d="M13,21.09c-.49,.09-.99,.14-1.5,.14s-1.01-.05-1.5-.14v1.91l-3,2v2h9v-2l-3-2v-1.91Z"/>
</svg>