<svg xmlns="http://www.w3.org/2000/svg" width="50" height="50" viewBox="0 0 50 50"><line x1="35" y1="15" x2="23" y2="15" fill="none" stroke="#fff" stroke-miterlimit="10" stroke-width="1.79"/><circle cx="25" cy="26" r="7" fill="none" stroke="#fff" stroke-miterlimit="10" stroke-width="1.56"/><path d="M22.8,27.1A3.1,3.1,0,0,1,25.9,24a2.8,2.8,0,0,1,1.8.6,3.1,3.1,0,0,0-6,1.2A3,3,0,0,0,23,28.3,5,5,0,0,1,22.8,27.1Z" fill="#fff"/><path d="M34,15V11H24v4H12.8A2.7,2.7,0,0,0,10,17.8V34.2A2.7,2.7,0,0,0,12.8,37H37.2A2.7,2.7,0,0,0,40,34.2V17.8A2.7,2.7,0,0,0,37.2,15Z" fill="none" stroke="#fff" stroke-miterlimit="10" stroke-width="1.79"/></svg>