<svg id="Flat" height="512" viewBox="0 0 512 512" width="512" xmlns="http://www.w3.org/2000/svg"><g><circle cx="104" cy="104" fill="#25b1fa" r="80"/><path d="m124 120h-12c11.046 0 16-8.954 16-20v-16a20 20 0 0 0 -20-20h-8a20 20 0 0 0 -20 20v16c0 11.046 4.954 20 16 20h-12a20 20 0 0 0 -20 20v33.3a80.1 80.1 0 0 0 80 0v-33.3a20 20 0 0 0 -20-20z" fill="#fcfeff"/><g><path d="m352 248a96 96 0 0 0 -97.368-95.99c-51.874.722-94.132 43.19-94.632 95.062a95.984 95.984 0 0 0 50.825 85.658l11.431 51.439a10 10 0 0 0 9.766 7.831h47.956a10 10 0 0 0 9.762-7.831l11.431-51.439a95.985 95.985 0 0 0 50.829-84.73z" fill="#fdc069"/><path d="m232.022 392h47.956a10 10 0 0 0 9.762-7.831l7.149-32.169h-81.778l7.149 32.169a10 10 0 0 0 9.762 7.831z" fill="#f15a57"/><path d="m280 224a8 8 0 0 0 -5.657 2.343l-18.343 18.343-18.343-18.343a8 8 0 0 0 -5.657-2.343h-32v16h28.687l19.313 19.314v92.686h16v-92.686l19.313-19.314h28.687v-16z" fill="#fffcf9"/></g><circle cx="408" cy="104" fill="#25b1fa" r="80"/><path d="m428 120h-12c11.046 0 16-8.954 16-20v-16a20 20 0 0 0 -20-20h-8a20 20 0 0 0 -20 20v16c0 11.046 4.954 20 16 20h-12a20 20 0 0 0 -20 20v33.3a80.1 80.1 0 0 0 80 0v-33.3a20 20 0 0 0 -20-20z" fill="#fcfeff"/><path d="m432 200v48h-56v16h56v48h16v-112z" fill="#7cd0fc"/><circle cx="104" cy="408" fill="#25b1fa" r="80"/><path d="m124 424h-12c11.046 0 16-8.954 16-20v-16a20 20 0 0 0 -20-20h-8a20 20 0 0 0 -20 20v16c0 11.046 4.954 20 16 20h-12a20 20 0 0 0 -20 20v33.3a80.1 80.1 0 0 0 80 0v-33.3a20 20 0 0 0 -20-20z" fill="#fcfeff"/><circle cx="408" cy="408" fill="#25b1fa" r="80"/><path d="m428 424h-12c11.046 0 16-8.954 16-20v-16a20 20 0 0 0 -20-20h-8a20 20 0 0 0 -20 20v16c0 11.046 4.954 20 16 20h-12a20 20 0 0 0 -20 20v33.3a80.1 80.1 0 0 0 80 0v-33.3a20 20 0 0 0 -20-20z" fill="#fcfeff"/><g fill="#7cd0fc"><path d="m200 56v16h48v56h16v-56h48v-16z"/><path d="m80 200h-16v112h16v-48h56v-16h-56z"/><path d="m264 416h-16v40h-48v16h112v-16h-48z"/></g></g></svg>