<svg xmlns="http://www.w3.org/2000/svg" viewBox="0 0 80 80">
  <path d="M74.3,4.1H63.9V0H16.1V4H5.6A5.6,5.6,0,0,0,.3,9.8v8.6C.3,30.2,8.4,40,19.7,41.7l1.4.2c3.2,3.6,6.7,6.5,11.3,8.1V60.4a4.3,4.3,0,0,0-3.7,3.8H25a4.5,4.5,0,0,0-4.4,4.6V80H59.9V68.8a4.5,4.5,0,0,0-4.4-4.6H51.3a4.4,4.4,0,0,0-3.7-3.9V49.9c4.6-1.6,8.1-4.5,11.3-8.1l1.4-.2C71.6,39.9,79.7,30,79.7,18.2V9.9A5.7,5.7,0,0,0,74.3,4.1ZM14,34.4a16.6,16.6,0,0,1-7.2-8.9A17.1,17.1,0,0,1,5.9,20V10.2H14V23.7a28.4,28.4,0,0,0,.9,7.2l4.3,6.8ZM74.1,20a17.1,17.1,0,0,1-.9,5.5A16.6,16.6,0,0,1,66,34.4l-5.2,3.3,4.3-6.8a28.4,28.4,0,0,0,.9-7.2V10.2h8.1Z"/>
</svg>
