<?xml version="1.0" encoding="UTF-8"?>
<svg xmlns="http://www.w3.org/2000/svg" width="50" height="50" xmlns:xlink="http://www.w3.org/1999/xlink" viewBox="0 0 50 50">
  <defs>
    <pattern id="f" data-name="Roan" x="0" y="0" width="4" height="4" patternTransform="translate(535 -2923)" patternUnits="userSpaceOnUse" viewBox="0 0 4 4">
      <g>
        <rect width="4" height="4" fill="none"/>
        <rect x="3" y="3" width="1" height="1" opacity=".8"/>
        <rect x="0" y="3" width="2" height="1" fill="#fff"/>
        <g>
          <rect x="1" y="1" width="1" height="1" opacity=".8"/>
          <rect x="2" y="1" width="2" height="1" fill="#fff"/>
        </g>
      </g>
    </pattern>
  </defs>
  <g isolation="isolate">
    <g id="b" data-name="Mouse Body">
      <path d="M16.007,28.001c-.333,0-.915-.092-1.2-.25l-3.808-1.992v-1.002c0-1.521,1.269-2.758,2.845-2.758h2.167c.6,0,1.188,.177,1.701,.511,.866,.564,1.28,1.524,1.28,2.529,0,1.529-1.418,2.961-2.985,2.961M33.402,10.863h-.002c-.756,0-1.492,.087-2.208,.262l-1.029,.298c-2.015,.596-16.909,5.584-21.444,7.493-1.806,.762-3.311,2.294-4.835,3.841l-1.234,1.225c-.084,.081-.561,.555-1.102,1.092-.958,.952-.967,2.5-.02,3.463l.252,.256c.497,.652,1.234,1.096,2.117,1.096,.084,0,.169-.004,.256-.012,.455-.039,.92-.078,1.376-.126,.29,.048,.591,.087,.892,.136h11.154c2.039-.512,4.745-.956,7.928-.956,.434,0,.876,.008,1.327,.026,2.549,.097,4.768,.484,6.571,.931,2.025,0,3.905-.649,5.456-1.754,3.072-2.158,4.825-6.109,3.716-10.273-1.112-4.179-4.848-6.996-9.172-6.996" fill="#b5b5b5"/>
    </g>
    <g id="c" data-name="Ears and Tail">
      <path d="M16.007,27.301c-.293,0-.732-.091-.86-.162l-3.447-1.804v-.578c0-1.135,.962-2.058,2.145-2.058h2.167c.464,0,.92,.138,1.318,.397,.611,.399,.962,1.107,.962,1.943,0,1.162-1.11,2.261-2.285,2.261Z" fill="#f2e0cf"/>
      <path d="M11.263,14.631c0-1.453-1.178-2.631-2.631-2.631s-2.631,1.178-2.631,2.631v5.926c.684-1.107,1.846-2.095,2.899-2.54,.361-.153,.736-.302,1.102-.454l1.012-1.803c0-.007-.002-.015-.002-.022,.157-.337,.251-.71,.251-1.106Z" fill="#f2e0cf"/>
      <path d="M47.984,22.314c-.744-1.19-1.771-2.179-2.901-2.943-.547-.355-1.116-.666-1.706-.929,.277,1.323,.294,2.647,.07,3.916,.721,.471,1.356,1.041,1.833,1.727,1.041,1.49,1.398,3.517,.911,5.362-.464,1.848-1.738,3.477-3.489,4.283-.876,.401-1.861,.639-2.866,.677-.922,.042-2.163-.154-3.293-.232l-13.792-1.254c-2.355-.335-4.987,.017-7.134,1.191-2.179,1.145-3.909,3.023-4.932,5.211-.11,.241-.014,.534,.225,.657,.246,.126,.547,.029,.673-.217,1.022-1.945,2.667-3.56,4.626-4.472,1.976-.94,4.151-1.151,6.346-.744l13.721,1.888,1.715,.236c.532,.077,1.233,.178,1.88,.171,1.303,.01,2.619-.229,3.866-.733,2.518-1.013,4.481-3.27,5.255-5.864,.808-2.589,.485-5.545-1.008-7.929Z" fill="#f2e0cf"/>
    </g>
    <g id="e" data-name="Ticking">
      <g opacity=".6">
        <path d="M3.897,29.389c-.667,0-1.277-.319-1.72-.898l-.293-.304c-.752-.765-.745-2.002,.016-2.758,.538-.534,2.335-2.317,2.335-2.317,1.541-1.563,2.972-3.016,4.677-3.734,4.478-1.886,19.327-6.864,21.392-7.475l1.027-.297c.652-.159,1.355-.242,2.069-.242,4.145,0,7.637,2.662,8.69,6.625,.989,3.716-.393,7.538-3.521,9.735-1.512,1.077-3.276,1.65-5.108,1.663-2.171-.533-4.395-.847-6.612-.931-.458-.018-.906-.026-1.346-.026-2.75,0-5.438,.322-7.989,.957H6.421l-.367-.062-.51-.078-.067,.007c-.414,.043-.836,.079-1.251,.115l-.116,.01c-.073,.007-.144,.01-.213,.01Zm9.947-7.89c-1.844,0-3.345,1.462-3.345,3.258v1.305l4.076,2.133c.399,.222,1.092,.307,1.432,.307,1.824,0,3.485-1.649,3.485-3.461,0-1.249-.549-2.323-1.506-2.948-.594-.388-1.277-.593-1.974-.593h-2.167Zm-6.211,2.8c-.848,0-1.539,.691-1.539,1.542s.69,1.542,1.539,1.542,1.539-.691,1.539-1.542-.69-1.542-1.539-1.542Z" fill="url(#f)"/>
      </g>
    </g>
    <g id="j" data-name="Eye">
      <circle cx="7.633" cy="25.841" r="1.039" mix-blend-mode="multiply"/>
    </g>
  </g>
</svg>