<?xml version="1.0" encoding="UTF-8"?>
<svg id="Ebene_10" data-name="Ebene 10" xmlns="http://www.w3.org/2000/svg" width="24" height="28" viewBox="0 0 24 28">
  <path d="M12.87,18.59l-1.95,8.68-2.55-2.34-3.31,1.03,1.77-7.86c.69,.53,1.54,.85,2.44,.85,.35,0,.69-.04,1.02-.13l1.7-.45,.87,.23Zm1.86,.35c-.3,0-.6-.04-.89-.11l-1.33,5.9,.57,2.53,2.55-2.34,3.31,1.03-1.77-7.86c-.69,.53-1.54,.85-2.44,.85Z"/>
  <path d="M12,3l1.74,1.49,.4,.34,.52,.1,2.25,.43-.08,2.29-.02,.53,.25,.47,1.06,2.03-1.84,1.37-.42,.32-.21,.48-.92,2.1-2.21-.59-.51-.14-.51,.14-2.21,.59-.92-2.1-.21-.48-.42-.32-1.84-1.37,1.06-2.03,.25-.47-.02-.53-.08-2.29,2.25-.43,.52-.1,.4-.34,1.74-1.49s0,0,0,0h0m0-2c-.46,0-.93,.16-1.3,.48l-1.74,1.49-2.25,.43c-.97,.19-1.65,1.05-1.62,2.03l.08,2.29-1.06,2.03c-.46,.87-.21,1.95,.58,2.53l1.84,1.37,.92,2.1c.33,.74,1.05,1.19,1.83,1.19,.17,0,.34-.02,.51-.07l2.21-.59,2.21,.59c.17,.05,.34,.07,.51,.07,.78,0,1.5-.46,1.83-1.19l.92-2.1,1.84-1.37c.79-.59,1.04-1.66,.58-2.53l-1.06-2.03,.08-2.29c.03-.98-.65-1.85-1.62-2.03l-2.25-.43-1.74-1.49c-.37-.32-.84-.48-1.3-.48h0Z"/>
</svg>